<?xml version="1.0" encoding="UTF-8" standalone="no"?>
<!-- Created with Inkscape (http://www.inkscape.org/) -->

<svg
   xmlns:dc="http://purl.org/dc/elements/1.1/"
   xmlns:cc="http://creativecommons.org/ns#"
   xmlns:rdf="http://www.w3.org/1999/02/22-rdf-syntax-ns#"
   xmlns:svg="http://www.w3.org/2000/svg"
   xmlns="http://www.w3.org/2000/svg"
   xmlns:sodipodi="http://sodipodi.sourceforge.net/DTD/sodipodi-0.dtd"
   xmlns:inkscape="http://www.inkscape.org/namespaces/inkscape"
   version="1.1"
   id="svg5018"
   width="120"
   height="73"
   viewBox="0 0 120 73"
   sodipodi:docname="shape2.svg"
   inkscape:version="0.92.4 (f8dce91, 2019-08-02)">
  <metadata
     id="metadata5024">
    <rdf:RDF>
      <cc:Work
         rdf:about="">
        <dc:format>image/svg+xml</dc:format>
        <dc:type
           rdf:resource="http://purl.org/dc/dcmitype/StillImage" />
        <dc:title></dc:title>
      </cc:Work>
    </rdf:RDF>
  </metadata>
  <defs
     id="defs5022">
    <inkscape:path-effect
       effect="spiro"
       id="path-effect5034"
       is_visible="true" />
    <clipPath
       clipPathUnits="userSpaceOnUse"
       id="clipPath5585">
      <path
         style="fill:none;stroke:#000000;stroke-width:1px;stroke-linecap:butt;stroke-linejoin:miter;stroke-opacity:1"
         d="m -54.06858,58.668571 c 0.43429,0.108572 0.8639,0.237923 1.30286,0.325714 0.10646,0.02129 0.22272,-0.03433 0.32572,0 0.46063,0.153544 0.8318,0.533667 1.30285,0.651429 1.30286,0.325714 0.16286,-0.162857 0.97715,0 0.43895,0.08779 0.86389,0.237923 1.30285,0.325714 0.10647,0.02129 0.21715,0 0.32572,0 0.43428,0 0.86857,0 1.30285,0 0.86858,0 1.73715,0 2.60572,0 1.52,0 3.04,0 4.56,0 0.54286,0 1.08571,0 1.62857,0 0.21714,0 0.43724,0.0357 0.65143,0 0.44156,-0.07359 0.8613,-0.252121 1.30286,-0.325714 0.21418,-0.0357 0.43724,0.0357 0.65142,0 0.44156,-0.07359 0.8613,-0.252121 1.30286,-0.325714 0.21419,-0.0357 0.43429,0 0.65143,0 0.43429,-0.108572 0.8639,-0.237923 1.30286,-0.325715 0.10646,-0.02129 0.21714,0 0.32571,0 0.43429,0 0.86857,0 1.30286,0 0.21714,0 0.44982,0.08064 0.65143,0 0.36346,-0.145384 0.62701,-0.476362 0.97714,-0.651428 0.0971,-0.04856 0.21714,0 0.32571,0 0.32572,0 0.65776,0.06388 0.97715,0 0.23806,-0.04761 0.4159,-0.266833 0.65143,-0.325714 1.30285,-0.325715 0.16285,0.162857 0.97714,0 0.43896,-0.08779 0.8613,-0.252121 1.30286,-0.325715 0.42837,-0.0714 0.86857,0 1.30285,0 1.19429,0 2.38857,0 3.58286,0 0.86857,0 1.73714,0 2.60571,0 0.32572,0 0.66815,0.103 0.97715,0 0.14566,-0.04855 0.18838,-0.257047 0.32571,-0.325714 0.17813,-0.08906 0.75548,0.05542 0.97714,0 0.33309,-0.08327 0.64407,-0.242444 0.97715,-0.325714 0.21066,-0.05267 0.45721,0.09711 0.65143,0 0.35013,-0.175066 0.66397,-0.416553 0.97714,-0.651429 0.24567,-0.184252 0.37676,-0.514095 0.65143,-0.651428 0.0971,-0.04856 0.21714,0 0.32571,0 0.32572,-0.108572 0.70248,-0.119715 0.97714,-0.325715 0.19422,-0.145664 0.15405,-0.479762 0.32572,-0.651428 0.0768,-0.07677 0.2286,0.04855 0.32571,0 0.13734,-0.06867 0.19796,-0.240544 0.32572,-0.325715 0.21714,-0.108571 0.43428,-0.217142 0.65143,-0.325714 0.10857,0 0.2286,0.04856 0.32571,0 0.13733,-0.06867 0.18838,-0.257048 0.32571,-0.325714 0.32572,-0.162857 0.65143,0.325714 0.97715,0 C -7.1481,53.439524 -7.10934,52.883999 -6.84,52.48 c 0.38562,-0.578439 0.8578,-1.094507 1.30285,-1.628572 0.0983,-0.117955 0.24055,-0.197958 0.32572,-0.325714 0.35116,-0.52675 0.57186,-1.14223 0.97714,-1.628571 0.15542,-0.186504 0.49601,-0.139211 0.65143,-0.325715 0.40528,-0.486341 0.57186,-1.14223 0.97714,-1.628571 0.15542,-0.186504 0.49977,-0.13614 0.65143,-0.325714 0.42804,-0.535054 0.5491,-1.419233 0.97714,-1.954286 C -0.68939,44.303166 -0.28776,44.045405 0,43.685714 0.29611,43.315568 0.6962,42.012368 0.97714,41.731428 1.14881,41.559762 1.4569,41.577381 1.62857,41.405714 c 0.42865,-0.428654 0.56805,-1.666365 0.97714,-2.28 0.25551,-0.383267 0.700765,-0.608639 0.977143,-0.977143 0.145664,-0.194218 0.191048,-0.449429 0.325714,-0.651428 0.08517,-0.127756 0.233589,-0.20288 0.325714,-0.325715 2.005039,-3.007557 -0.553607,0.69201 1.302858,-1.628571 0.244543,-0.305679 0.450024,-0.641469 0.651428,-0.977143 0.124906,-0.208176 0.170295,-0.464925 0.325714,-0.651429 0.49148,-0.589775 1.137092,-1.038795 1.628572,-1.628571 0.445054,-0.534065 0.850429,-1.100739 1.302857,-1.628571 0.599547,-0.699472 1.302857,-1.302858 1.954286,-1.954286 0.651428,-0.651429 1.36451,-1.246555 1.954285,-1.954286 0.15542,-0.186503 0.170295,-0.464925 0.325715,-0.651428 0.491479,-0.589776 1.148983,-1.029086 1.628571,-1.628572 0.33912,-0.4239 0.67602,-0.851173 0.977143,-1.302857 1.515606,-2.27341 -1.44531,1.601365 0.977143,-1.628571 0.09213,-0.122835 0.217143,-0.217143 0.325714,-0.325715 0.325714,-0.434285 0.661614,-0.861116 0.977143,-1.302857 0.227531,-0.318544 0.406886,-0.671464 0.651429,-0.977143 0.191835,-0.239794 0.467176,-0.405759 0.651428,-0.651428 0.145664,-0.194219 0.217143,-0.434286 0.325714,-0.651429 0.108572,-0.217143 0.235551,-0.426019 0.325715,-0.651428 0.12751,-0.318777 0.172171,-0.670057 0.325714,-0.977143 0.06867,-0.137333 0.217143,-0.217143 0.325714,-0.325715 0.217143,-0.217142 0.467177,-0.405759 0.651429,-0.651428 0.145664,-0.194219 0.154048,-0.479762 0.325714,-0.651429 0.171667,-0.171666 0.479762,-0.154047 0.651429,-0.325714 0.383858,-0.383858 0.638022,-0.878957 0.977143,-1.302857 0.09592,-0.119897 0.188381,-0.257048 0.325714,-0.325714 1.112797,-0.556399 -1.136081,2.43737 1.302857,-0.977143 0.673975,-0.943565 0.590514,-1.313429 0.977143,-2.28 0.761909,-1.9047717 -0.18473,1.346602 1.628571,-2.28 0.247581,-0.4951619 0.13133,-1.1102122 0.325715,-1.6285714 0.13745,-0.3665353 0.463977,-0.633482 0.651428,-0.9771429 0.46501,-0.8525177 0.781502,-1.786441 1.302857,-2.6057143 0.247301,-0.3886154 0.685455,-0.6206352 0.977143,-0.97714282 1.22662,-0.9362428 1.699089,-2.41719618 2.605714,-3.58285718 0.520604,-0.6693469 1.091605,-1.2979931 1.628572,-1.9542857 0.440224,-0.5380523 0.837795,-1.111836 1.302857,-1.6285714 0.513575,-0.5706388 1.157239,-1.0225732 1.628571,-1.6285714 0.298097,-0.383267 0.360101,-0.9144202 0.651429,-1.3028572 0.368504,-0.4913384 0.868571,-0.8685717 1.302857,-1.3028577 0.217143,-0.217143 0.384803,-0.499071 0.651429,-0.651428 0.50764,-0.29008 1.179411,-0.277129 1.628571,-0.651429 0.263756,-0.219796 0.08294,-0.73437 0.325714,-0.977143 0.343333,-0.343333 0.92371,-0.34811 1.302858,-0.651428 0.189574,-0.151659 0.13614,-0.49977 0.325714,-0.651429 0.814286,-0.651428 1.221428,-0.488571 1.954286,-0.977143 0.451684,-0.301123 0.831525,-0.70781 1.302857,-0.977143 0.596193,-0.340681 1.340113,-0.344342 1.954285,-0.651428 0.137334,-0.06867 0.183153,-0.26869 0.325715,-0.325714 0.415634,-0.166254 0.902465,-0.125519 1.302857,-0.325715 0.274666,-0.137333 0.376762,-0.514095 0.651428,-0.651428 0.400392,-0.200196 0.87243,-0.202735 1.302858,-0.325715 0.330122,-0.09432 0.64702,-0.231393 0.977142,-0.325714 0.430428,-0.122979 0.902466,-0.125518 1.302858,-0.325714 0.274666,-0.137333 0.384803,-0.499071 0.651428,-0.651429 0.50764,-0.29008 1.09117,-0.421114 1.628572,-0.651428 0.223143,-0.09563 0.421113,-0.248943 0.651428,-0.325715 0.42468,-0.141559 0.902466,-0.125518 1.302857,-0.325714 0.274667,-0.137333 0.369172,-0.530461 0.651429,-0.651428 0.508846,-0.218077 1.103373,-0.150649 1.628571,-0.325715 0.145664,-0.04855 0.217143,-0.217143 0.325715,-0.325714 0.434285,-0.108571 0.861296,-0.252121 1.302857,-0.325714 0.214188,-0.0357 0.449816,0.08065 0.651428,0 0.363462,-0.145385 0.613682,-0.506044 0.977143,-0.651429 0.302418,-0.120967 0.651429,0 0.977143,0 0.868571,0 1.737143,0 2.605714,0 0.76,0 1.52,0 2.28,0 0.217143,0 0.45721,-0.09711 0.651429,0 0.274666,0.137333 0.376762,0.514096 0.651428,0.651429 0.217143,0.108571 0.705715,-0.05429 0.977143,0 0.438959,0.08779 0.863899,0.237922 1.302857,0.325714 0.106463,0.02129 0.220385,-0.02633 0.325715,0 0.333082,0.08327 0.644061,0.242444 0.977143,0.325714 0.105329,0.02633 0.217142,0 0.325714,0 0.714905,0 1.284154,-0.07636 1.954286,0.325715 0.263324,0.157994 0.434285,0.434285 0.651428,0.651428 0.108572,0.108572 0.188381,0.257048 0.325714,0.325714 0.307087,0.153544 0.64702,0.231394 0.977143,0.325715 0.430428,0.122979 0.914187,0.103617 1.302857,0.325714 0.399939,0.228536 0.60864,0.700765 0.977143,0.977143 0.08686,0.06514 0.219252,-0.02129 0.325715,0 0.438958,0.08779 0.887223,0.159461 1.302857,0.325714 0.142561,0.05702 0.205817,0.229797 0.325714,0.325714 0.4239,0.339121 0.878957,0.638023 1.302857,0.977143 0.119897,0.09592 0.194052,0.246717 0.325714,0.325715 1.037816,0.622689 2.219328,1.005882 3.257143,1.628571 0.131662,0.079 0.20288,0.233588 0.325715,0.325714 0.313167,0.234876 0.641468,0.450024 0.977142,0.651429 0.208177,0.124906 0.479762,0.154048 0.651429,0.325714 0.276804,0.276804 0.338261,0.742267 0.651429,0.977143 0.173714,0.130286 0.45721,-0.09711 0.651428,0 0.02894,0.01447 1.232851,1.246852 1.302857,1.302857 0.305679,0.244543 0.663975,0.416553 0.977143,0.651429 0.122835,0.09213 0.217143,0.217143 0.325714,0.325714 0.434286,0.434286 0.868572,0.868571 1.302858,1.3028573 0.108571,0.1085716 0.233588,0.2028799 0.325714,0.3257144 0.234876,0.3131679 0.374625,0.700339 0.651428,0.9771429 0.171667,0.1716665 0.461855,0.1740551 0.651429,0.3257143 0.359691,0.287753 0.651429,0.6514285 0.977143,0.9771428 0.325714,0.3257143 0.682257,0.6232775 0.977147,0.9771429 1.16681,1.400178 0.24264,0.4852945 0.97714,1.9542857 0.28312,0.5662393 0.60917,1.1134173 0.97714,1.6285714 1.5259,2.13625812 -0.38647,-1.7500931 1.62857,2.28000002 0.15355,0.30708637 0.15898,0.67701581 0.32572,0.97714286 0.38022,0.68439492 0.88791,1.29037112 1.30285,1.95428572 0.12867,0.2058712 0.25902,0.4179964 0.32572,0.6514286 0.15209,0.5323072 0.17363,1.0962642 0.32571,1.6285714 0.0667,0.2334321 0.21715,0.4342857 0.32572,0.6514286 0.32571,0.6514285 0.74683,1.2633413 0.97714,1.9542857 0.103,0.3089997 -0.0404,0.6539438 0,0.9771428 0.41079,3.2863456 0.0617,0.5108229 0.65143,2.2799996 0.14156,0.42468 0.25212,0.861297 0.32571,1.302857 0.0357,0.214189 -0.0687,0.445429 0,0.651429 0.15355,0.460629 0.49789,0.842227 0.65143,1.302857 0.0687,0.206 -0.0357,0.43724 0,0.651429 0.0736,0.44156 0.25212,0.861296 0.32572,1.302857 0.0357,0.214188 0,0.434285 0,0.651428 0,0.542857 0,1.085715 0,1.628572 0,0.325714 0,0.651428 0,0.977143 0,0.108571 -0.0343,0.222714 0,0.325714 0.0768,0.230315 0.26683,0.415904 0.32571,0.651428 0.12838,0.513509 -0.10391,1.109014 0,1.628572 0.0878,0.438958 0.23792,0.863899 0.32571,1.302857 0.0213,0.106463 0,0.217143 0,0.325714 0,0.542857 -0.0768,1.091171 0,1.628572 0.0343,0.240333 0.28581,0.411958 0.32572,0.651428 0.0714,0.428377 0,0.868572 0,1.302857 0,0.217143 -0.0687,0.445429 0,0.651429 0.15354,0.46063 0.4711,0.852039 0.65143,1.302857 0.0403,0.100806 0,0.217143 0,0.325714 0,0.112565 -0.0439,2.473898 0,2.605715 0.0486,0.145664 0.25704,0.188381 0.32571,0.325714 0.0923,0.184612 -0.0799,1.309062 0,1.628571 0.0833,0.333082 0.25838,0.640478 0.32572,0.977143 0.0426,0.212926 -0.0426,0.438503 0,0.651429 0.0673,0.336666 0.24244,0.644061 0.32571,0.977143 0.0263,0.105329 -0.0213,0.219251 0,0.325714 0.0878,0.438958 0.23792,0.863899 0.32571,1.302857 0.0213,0.106463 0,0.217143 0,0.325714 0,0.434286 0,0.868572 0,1.302858 0,0.217142 -0.0597,0.44264 0,0.651428 0.16063,0.562179 0.49081,1.066393 0.65143,1.628572 0.0596,0.208788 0,0.434285 0,0.651428 0,0.434286 -0.0614,0.872936 0,1.302857 0.0485,0.339883 0.28313,0.636461 0.32572,0.977143 0.0673,0.538665 0,1.085714 0,1.628572 0,1.194285 0,2.388571 0,3.582857 0,0.181799 -0.0497,1.479471 0,1.628571 0.0486,0.145664 0.25704,0.188381 0.32571,0.325714 0.0646,0.129183 -0.0287,1.398929 0,1.628572 0.0819,0.655314 0.2438,1.298971 0.32572,1.954286 0.0269,0.215466 -0.0527,0.440769 0,0.651428 0.16654,0.666164 0.50247,1.283971 0.65142,1.954286 0.0707,0.317958 0,0.651428 0,0.977143 0,0.325714 0,0.651428 0,0.977143 0,0.977142 0,1.954285 0,2.931428 0,0.30677 -0.0618,1.443285 0,1.628572 0.0486,0.145663 0.25705,0.188381 0.32572,0.325714 0.0642,0.12841 0,1.30686 0,1.628571 0,1.302857 0,2.605715 0,3.908572 0,1.302857 0,2.605714 0,3.908571 0,0.76 0,1.52 0,2.28 0,0.217143 0,0.434286 0,0.651429 0,0.108571 0.0485,0.228605 0,0.325714 -0.0687,0.137333 -0.25705,0.188381 -0.32572,0.325714 -0.10336,0.20673 0.1056,1.522976 0,1.628572 -0.17166,0.171666 -0.47976,0.154047 -0.65142,0.325714 -0.002,0.0016 0.002,0.964602 0,0.977143 -0.0673,0.336666 -0.17218,0.670056 -0.32572,0.977143 -0.0687,0.137333 -0.30047,0.17426 -0.32571,0.325714 -0.0892,0.535471 0.0768,1.09117 0,1.628571 -0.0576,0.403362 -0.90562,1.413996 -0.97715,1.628572 -0.103,0.309 0.0536,0.65586 0,0.977143 -0.0564,0.338661 -0.24244,0.644061 -0.32571,0.977143 -0.0263,0.105329 0.0263,0.220384 0,0.325714 -0.82272,3.290891 0.11761,-0.235227 -0.65143,1.302857 -0.0485,0.09711 0,0.217143 0,0.325714 0,0.217143 0.0426,0.438503 0,0.651429 -0.2729,1.364486 -0.33663,0.673262 -0.97714,1.954286 -0.15354,0.307086 -0.21714,0.651428 -0.32572,0.977142 -0.10857,0.325715 -0.21714,0.651429 -0.32571,0.977143 -0.10857,0.325715 -0.25838,0.640477 -0.32571,0.977143 -0.0426,0.212926 0.0527,0.440769 0,0.651429 -0.19711,0.788404 -0.49045,0.653928 -0.97715,1.302857 -0.37427,0.499025 -0.32571,0.520241 -0.32571,0.977143 0,0.108571 0,0.217143 0,0.325714 0,0.108571 0.0602,0.235377 0,0.325714 -0.63395,0.950926 -1.63386,0.82089 -2.28,1.628572 -0.33912,0.4239 -0.63802,0.87895 -0.97714,1.30285 -0.0959,0.1199 -0.23359,0.20288 -0.32572,0.32572 -0.23487,0.31317 -0.37462,0.70034 -0.65143,0.97714 -0.17166,0.17167 -0.47976,0.15405 -0.65143,0.32571 -0.55161,0.55162 -0.0998,1.07696 -0.65142,1.62858 -0.17167,0.17166 -0.44326,0.2008 -0.65143,0.32571 -0.33568,0.2014 -0.70034,0.37462 -0.97715,0.65143 -0.38385,0.38386 -0.59328,0.919 -0.977139,1.30286 -0.171666,0.17166 -0.461854,0.17405 -0.651428,0.32571 -0.359691,0.28775 -0.617452,0.68939 -0.977143,0.97714 -0.189574,0.15166 -0.443252,0.20081 -0.651429,0.32572 -0.335674,0.2014 -0.663975,0.41655 -0.977142,0.65143 -0.746978,0.74697 0.17034,-0.12776 -1.302858,0.97714 -0.245669,0.18425 -0.376762,0.51409 -0.651428,0.65143 -0.307087,0.15354 -0.682737,0.14907 -0.977143,0.32571 -0.263324,0.158 -0.388104,0.49344 -0.651429,0.65143 -0.294405,0.17664 -0.670056,0.17217 -0.977142,0.32571 -0.350133,0.17507 -0.627011,0.47637 -0.977143,0.65143 -0.307087,0.15355 -0.691473,0.13527 -0.977143,0.32572 -0.383267,0.25551 -0.593876,0.72163 -0.977143,0.97714 -0.28567,0.19045 -0.651429,0.21714 -0.977143,0.32571 -0.542857,0.43429 -1.062867,0.89879 -1.628571,1.30286 -0.585406,0.41815 -1.368881,0.559 -1.954286,0.97714 -0.37483,0.26774 -0.651429,0.65143 -0.977143,0.97715 -0.542857,0.32571 -1.091725,0.64161 -1.628571,0.97714 -0.331958,0.20747 -0.605772,0.52764 -0.977143,0.65143 -0.626524,0.20884 -1.31359,0.16554 -1.954286,0.32571 -0.235524,0.0589 -0.417996,0.25902 -0.651428,0.32572 -0.532308,0.15208 -1.119726,0.10763 -1.628572,0.32571 -0.282257,0.12097 -0.356158,0.56707 -0.651428,0.65143 -0.521971,0.14913 -1.089035,-0.06 -1.628572,0 -0.444913,0.0494 -0.858662,0.27019 -1.302857,0.32571 -0.646398,0.0808 -1.302857,0 -1.954286,0 -1.411428,0 -2.822857,0 -4.234285,0 -5.32,0 -10.64,0 -15.96,0 -1.628572,0 -3.257143,0 -4.885715,0 -0.76,0 -1.52,0 -2.28,0 -0.108571,0 -0.21862,-0.0178 -0.325714,0 -0.546075,0.091 -1.082496,0.23471 -1.628571,0.32572 -0.107095,0.0178 -0.217143,0 -0.325715,0 -0.542857,0 -1.085714,0 -1.628571,0 -0.434286,0 -0.870727,-0.0432 -1.302857,0 -0.657137,0.0657 -1.300509,0.23232 -1.954286,0.32571 -0.9576,0.1368 -1.973829,-0.1368 -2.931429,0 -2.648654,0.37838 -0.304583,0.32572 -1.954285,0.32572 -0.285617,0 -2.466536,-0.0557 -2.605715,0 -0.450818,0.18032 -0.852038,0.4711 -1.302857,0.65143 -0.100806,0.0403 -0.217143,0 -0.325714,0 -0.542857,0 -1.085714,0 -1.628571,0 -0.108572,0 -0.219252,-0.0213 -0.325715,0 -2.928019,0.5856 0.481727,0.0826 -2.931428,0.65142 -0.107094,0.0178 -0.21862,-0.0178 -0.325715,0 -0.546075,0.091 -1.079238,0.25705 -1.628571,0.32572 -0.323199,0.0404 -0.651429,0 -0.977143,0 -0.434286,0.10857 -0.863899,0.23792 -1.302857,0.32571 -0.106463,0.0213 -0.224908,-0.0403 -0.325714,0 -0.450819,0.18033 -0.852039,0.4711 -1.302857,0.65143 -0.201613,0.0806 -0.434286,0 -0.651429,0 -0.542857,0 -1.085714,0 -1.628571,0 -1.737143,0 -3.474286,0 -5.211429,0 -0.176953,0 -2.278,-0.0655 -2.605714,0 -0.438959,0.0878 -0.863899,0.23792 -1.302857,0.32572 -0.31939,0.0639 -0.651429,0 -0.977143,0 -0.868572,0 -1.737146,0 -2.605716,0 -0.43428,0 -0.87293,0.0614 -1.30286,0 -2.93826,-0.41976 -1.07474,-0.18726 -4.23428,-0.97715 -0.10533,-0.0263 -0.21862,0.0178 -0.32572,0 -0.54607,-0.091 -1.08249,-0.2347 -1.62857,-0.32571 -0.10709,-0.0178 -0.21862,0.0178 -0.32571,0 -0.54608,-0.091 -1.08053,-0.24742 -1.62857,-0.32572 -0.42992,-0.0614 -0.86857,0 -1.30286,0 -0.76,0 -1.52,0 -2.28,0 -0.3944,0 -0.93594,0.0734 -1.30286,0 -1.36107,-0.27221 -1.01744,-0.0403 -1.62857,-0.65142 -0.21714,-0.21715 -0.39592,-0.48109 -0.65143,-0.65143 -0.0903,-0.0602 -0.21714,0 -0.32571,0 -0.32572,0 -0.65776,0.0639 -0.97714,0 -0.23806,-0.0476 -0.41337,-0.27811 -0.65143,-0.32572 -0.31939,-0.0639 -0.65776,0.0639 -0.97715,0 -0.23805,-0.0476 -0.42111,-0.24894 -0.65142,-0.32571 -0.103,-0.0343 -0.21715,0 -0.32572,0 -0.32571,0 -0.65775,0.0639 -0.97714,0 -0.23806,-0.0476 -0.42112,-0.24894 -0.65143,-0.32572 -0.309,-0.103 -0.66115,0.079 -0.97714,0 -0.23553,-0.0589 -0.42112,-0.24894 -0.65143,-0.32571 -0.48857,-0.16286 -0.32572,0.32571 -0.97714,0 -0.27467,-0.13733 -0.37677,-0.5141 -0.65143,-0.65143 -0.40039,-0.20019 -0.88723,-0.15946 -1.30286,-0.32571 -0.14256,-0.057 -0.19796,-0.24055 -0.32571,-0.32572 -0.202,-0.13466 -0.44326,-0.20081 -0.65143,-0.32571 -0.33568,-0.20141 -0.62701,-0.47636 -0.97715,-0.65143 -1.62127,-0.81064 -1.20224,-0.36128 -2.28,-0.97714 -1.20025,0.55531 -1.31673,-0.92033 -1.95428,-1.30286 -0.41635,-0.24981 -0.89886,-0.3821 -1.30286,-0.65143 -0.25551,-0.17034 -0.41163,-0.45959 -0.65143,-0.65143 -2.01871,-1.61497 -0.10633,0.0377 -1.62857,-0.97714 -0.12775,-0.0852 -0.18005,-0.27716 -0.32571,-0.32571 -0.206,-0.0687 -0.43429,0 -0.65143,0 -0.10857,0 -0.29138,0.103 -0.32572,0 -0.103,-0.309 0.103,-0.66815 0,-0.97715 -0.0343,-0.103 -0.2423,0.0695 -0.32571,0 -0.58978,-0.49148 -1.2164,-0.98088 -1.62857,-1.62857 -2.28,-3.58286 0.32571,-0.65143 -0.97714,-2.93143 -0.26934,-0.47133 -0.70781,-0.83152 -0.97715,-1.30285 -0.1696,-0.2968 -0.33684,-1.31399 -0.65143,-1.62858 -0.17166,-0.17166 -0.47976,-0.15404 -0.65142,-0.32571 -0.27681,-0.2768 -0.47637,-0.62701 -0.65143,-0.97714 -0.0486,-0.0971 0.0768,-0.24895 0,-0.32572 -0.0768,-0.0768 -0.24895,0.0768 -0.32572,0 -0.16285,-0.16285 0.16286,-0.81428 0,-0.97714 -0.0768,-0.0768 -0.29138,0.103 -0.32571,0 -0.103,-0.309 0.18067,-0.70613 0,-0.97714 -0.12045,-0.18068 -0.43429,0 -0.65143,0 -0.32571,-0.54286 -0.67399,-1.0728 -0.97714,-1.62857 -0.76121,-1.395552 -1.0899,-2.146404 -1.62857,-3.582857 -0.12056,-0.321473 -0.17218,-0.670057 -0.32572,-0.977143 -0.17506,-0.350133 -0.41655,-0.663975 -0.65143,-0.977143 -0.0921,-0.122835 -0.25704,-0.188381 -0.32571,-0.325714 -0.0486,-0.09711 0,-0.217143 0,-0.325715 -0.10857,-0.325714 -0.17217,-0.670056 -0.32572,-0.977143 -0.29844,-0.596891 -0.35298,-0.05454 -0.65142,-0.651428 -0.0486,-0.09711 0.0486,-0.228605 0,-0.325714 -0.17507,-0.350133 -0.47637,-0.627011 -0.65143,-0.977143 -0.0486,-0.09711 0.0343,-0.222715 0,-0.325715 -0.9227,-1.845394 0.12138,0.485547 -0.32572,-1.302857 -0.0589,-0.235524 -0.23555,-0.426019 -0.32571,-0.651428 -0.12751,-0.318777 -0.14907,-0.682738 -0.32572,-0.977143 -0.15799,-0.263325 -0.48108,-0.395917 -0.65142,-0.651429 -0.0602,-0.09034 0,-0.217143 0,-0.325714 0,-0.108571 0,-0.217143 0,-0.325714 0,-0.542857 0,-1.085715 0,-1.628572 0,-0.325714 0,-0.651428 0,-0.977143 0,-0.108571 0.0298,-0.22132 0,-0.325714 -0.18865,-0.660246 -0.46279,-1.29404 -0.65143,-1.954286 -0.0298,-0.104394 0,-0.217142 0,-0.325714 0,-0.542857 0,-1.085714 0,-1.628571 0,-0.108572 0.0179,-0.21862 0,-0.325715 -0.091,-0.546075 -0.2347,-1.082496 -0.32572,-1.628571 -0.0714,-0.428377 0,-0.868571 0,-1.302857 0,-0.651429 0,-1.302857 0,-1.954286 0,-1.085714 0,-2.171428 0,-3.257143 0,-0.322061 0.0708,-1.019738 0,-1.302857 -0.0833,-0.333082 -0.23139,-0.64702 -0.32571,-0.977143 -0.10857,-0.434285 -0.21714,-0.868571 -0.32572,-1.302857 0,-0.108571 0.0213,-0.219251 0,-0.325714 -0.0878,-0.438959 -0.23792,-0.863899 -0.32571,-1.302857 -0.0499,-0.249614 0.0866,-0.760732 0,-0.977143 -0.18033,-0.450818 -0.4711,-0.852039 -0.65143,-1.302857 -0.0403,-0.100806 0.0263,-0.220385 0,-0.325715 -0.0833,-0.333082 -0.24244,-0.64406 -0.32571,-0.977142 -0.0601,-0.240447 0,-1.396232 0,-1.628572 0,-0.217143 0,-0.434286 0,-0.651428 0,-0.108572 -0.10857,-0.325715 0,-0.325715 0.10857,0 0.0651,0.412572 0,0.325715 -0.37985,-0.50646 -0.65143,-1.085715 -0.97715,-1.628572 z"
         id="path5587"
         inkscape:connector-curvature="0" />
    </clipPath>
    <clipPath
       clipPathUnits="userSpaceOnUse"
       id="clipPath5589">
      <path
         style="fill:none;stroke:#000000;stroke-width:1px;stroke-linecap:butt;stroke-linejoin:miter;stroke-opacity:1"
         d="m -156.99429,58.342857 c 0.43429,0.108572 0.8639,0.237923 1.30286,0.325714 0.10646,0.02129 0.22272,-0.03433 0.32572,0 0.46063,0.153544 0.8318,0.533667 1.30285,0.651429 1.30286,0.325714 0.16286,-0.162857 0.97715,0 0.43895,0.08779 0.86389,0.237923 1.30285,0.325714 0.10647,0.02129 0.21715,0 0.32572,0 0.43428,0 0.86857,0 1.30285,0 0.86858,0 1.73715,0 2.60572,0 1.52,0 3.04,0 4.56,0 0.54286,0 1.08571,0 1.62857,0 0.21714,0 0.43724,0.0357 0.65143,0 0.44156,-0.07359 0.8613,-0.252121 1.30286,-0.325714 0.21418,-0.0357 0.43724,0.0357 0.65142,0 0.44156,-0.07359 0.8613,-0.252121 1.30286,-0.325714 0.21419,-0.0357 0.43429,0 0.65143,0 0.43429,-0.108572 0.8639,-0.237923 1.30286,-0.325715 0.10646,-0.02129 0.21714,0 0.32571,0 0.43429,0 0.86857,0 1.30286,0 0.21714,0 0.44982,0.08064 0.65143,0 0.36346,-0.145384 0.62701,-0.476362 0.97714,-0.651428 0.0971,-0.04856 0.21714,0 0.32571,0 0.32572,0 0.65776,0.06388 0.97715,0 0.23806,-0.04761 0.4159,-0.266833 0.65143,-0.325714 1.30285,-0.325715 0.16285,0.162857 0.97714,0 0.43896,-0.08779 0.8613,-0.252121 1.30286,-0.325715 0.42837,-0.0714 0.86857,0 1.30285,0 1.19429,0 2.38857,0 3.58286,0 0.86857,0 1.73714,0 2.60571,0 0.32572,0 0.66815,0.103 0.97715,0 0.14566,-0.04855 0.18838,-0.257047 0.32571,-0.325714 0.17813,-0.08906 0.75548,0.05542 0.97714,0 0.33309,-0.08327 0.64407,-0.242444 0.97715,-0.325714 0.21066,-0.05267 0.45721,0.09711 0.65143,0 0.35013,-0.175066 0.66397,-0.416553 0.97714,-0.651429 0.24567,-0.184252 0.37676,-0.514095 0.65143,-0.651428 0.0971,-0.04856 0.21714,0 0.32571,0 0.32572,-0.108572 0.70248,-0.119715 0.97714,-0.325715 0.19422,-0.145664 0.15405,-0.479762 0.32572,-0.651428 0.0768,-0.07677 0.2286,0.04855 0.32571,0 0.13734,-0.06867 0.19796,-0.240544 0.32572,-0.325715 0.21714,-0.108571 0.43428,-0.217142 0.65143,-0.325714 0.10857,0 0.2286,0.04856 0.32571,0 0.13733,-0.06867 0.18838,-0.257048 0.32571,-0.325714 0.32572,-0.162857 0.65143,0.325714 0.97715,0 0.34333,-0.343333 0.38209,-0.898858 0.65143,-1.302857 0.38562,-0.578439 0.8578,-1.094507 1.30285,-1.628572 0.0983,-0.117955 0.24055,-0.197958 0.32572,-0.325714 0.35116,-0.52675 0.57186,-1.14223 0.97714,-1.628571 0.15542,-0.186504 0.49601,-0.139211 0.65143,-0.325715 0.40528,-0.486341 0.57186,-1.14223 0.97714,-1.628571 0.15542,-0.186504 0.49977,-0.13614 0.65143,-0.325714 0.42804,-0.535054 0.5491,-1.419233 0.97714,-1.954286 0.28776,-0.359691 0.68939,-0.617452 0.97715,-0.977143 0.29611,-0.370146 0.6962,-1.673346 0.97714,-1.954286 0.17167,-0.171666 0.47976,-0.154047 0.65143,-0.325714 0.42865,-0.428654 0.56805,-1.666365 0.97714,-2.28 0.25551,-0.383267 0.700765,-0.608639 0.977143,-0.977143 0.145664,-0.194218 0.191048,-0.449429 0.325714,-0.651428 0.08517,-0.127756 0.233589,-0.20288 0.325714,-0.325715 2.005039,-3.007557 -0.553607,0.69201 1.302858,-1.628571 0.244543,-0.305679 0.450024,-0.641469 0.651428,-0.977143 0.124906,-0.208176 0.170295,-0.464925 0.325714,-0.651429 0.49148,-0.589775 1.137092,-1.038795 1.628572,-1.628571 0.445054,-0.534065 0.850429,-1.100739 1.302857,-1.628571 0.599547,-0.699472 1.302857,-1.302858 1.954286,-1.954286 0.651428,-0.651429 1.36451,-1.246555 1.954285,-1.954286 0.15542,-0.186503 0.170295,-0.464925 0.325715,-0.651428 0.491479,-0.589776 1.148983,-1.029086 1.628571,-1.628572 0.33912,-0.4239 0.67602,-0.851173 0.977143,-1.302857 1.515606,-2.27341 -1.44531,1.601365 0.977143,-1.628571 0.09213,-0.122835 0.217143,-0.217143 0.325714,-0.325715 0.325714,-0.434285 0.661614,-0.861116 0.977143,-1.302857 0.227531,-0.318544 0.406886,-0.671464 0.651429,-0.977143 0.191835,-0.239794 0.467176,-0.405759 0.651428,-0.651428 0.145664,-0.194219 0.217143,-0.434286 0.325714,-0.651429 0.108572,-0.217143 0.235551,-0.426019 0.325715,-0.651428 0.12751,-0.318777 0.172171,-0.670057 0.325714,-0.977143 0.06867,-0.137333 0.217143,-0.217143 0.325714,-0.325715 0.217143,-0.217142 0.467177,-0.405759 0.651429,-0.651428 0.145664,-0.194219 0.154048,-0.479762 0.325714,-0.651429 0.171667,-0.171666 0.479762,-0.154047 0.651429,-0.325714 0.383858,-0.383858 0.638022,-0.878957 0.977143,-1.302857 0.09592,-0.119897 0.188381,-0.257048 0.325714,-0.325714 1.112797,-0.556399 -1.136081,2.43737 1.302857,-0.977143 0.673975,-0.943565 0.590514,-1.313429 0.977143,-2.2800003 0.761909,-1.9047717 -0.18473,1.3466023 1.628571,-2.28 0.247581,-0.4951619 0.13133,-1.1102122 0.325715,-1.6285714 0.13745,-0.3665353 0.463977,-0.633482 0.651428,-0.9771429 0.46501,-0.8525177 0.781502,-1.786441 1.302857,-2.6057143 0.247301,-0.38861538 0.685455,-0.6206352 0.977143,-0.97714281 1.22662,-0.9362428 1.699089,-2.41719619 2.605714,-3.58285719 0.520604,-0.6693469 1.091605,-1.2979931 1.628572,-1.9542857 0.440224,-0.5380523 0.837795,-1.111836 1.302857,-1.6285714 0.513575,-0.5706388 1.157239,-1.0225732 1.628571,-1.6285714 0.298097,-0.383267 0.360101,-0.9144202 0.651429,-1.3028572 0.368504,-0.4913384 0.868571,-0.8685714 1.302857,-1.3028574 0.217143,-0.217143 0.384803,-0.499071 0.651429,-0.651428 0.50764,-0.29008 1.179411,-0.277129 1.628571,-0.651429 0.263756,-0.219796 0.08294,-0.73437 0.325714,-0.977143 0.343333,-0.343333 0.92371,-0.34811 1.302858,-0.651428 0.189574,-0.151659 0.13614,-0.49977 0.325714,-0.651429 0.814286,-0.651428 1.221428,-0.488571 1.954286,-0.977143 0.451684,-0.301123 0.831525,-0.70781 1.302857,-0.977143 0.596193,-0.340681 1.340113,-0.344342 1.954285,-0.651428 0.137334,-0.06867 0.183153,-0.26869 0.325715,-0.325714 0.415634,-0.166254 0.902465,-0.125519 1.302857,-0.325715 0.274666,-0.137333 0.376762,-0.514095 0.651428,-0.651428 0.400392,-0.200196 0.87243,-0.202735 1.302858,-0.325715 0.330122,-0.09432 0.64702,-0.231393 0.977142,-0.325714 0.430428,-0.122979 0.902466,-0.125518 1.302858,-0.325714 0.274666,-0.137333 0.384803,-0.499071 0.651428,-0.651429 0.50764,-0.29008 1.09117,-0.421114 1.628572,-0.651428 0.223143,-0.09563 0.421113,-0.248943 0.651428,-0.325715 0.42468,-0.141559 0.902466,-0.125518 1.302857,-0.325714 0.274667,-0.137333 0.369172,-0.530461 0.651429,-0.651428 0.508846,-0.218077 1.103373,-0.150649 1.628571,-0.325715 0.145664,-0.04855 0.217143,-0.217143 0.325715,-0.325714 0.434285,-0.108571 0.861296,-0.252121 1.302857,-0.325714 0.214188,-0.0357 0.449816,0.08065 0.651428,0 0.363462,-0.145385 0.613682,-0.506044 0.977143,-0.651429 0.302418,-0.120967 0.651429,0 0.977143,0 0.868571,0 1.737143,0 2.605714,0 0.76,0 1.52,0 2.28,0 0.217143,0 0.45721,-0.09711 0.651429,0 0.274666,0.137333 0.376762,0.514096 0.651428,0.651429 0.217143,0.108571 0.705715,-0.05429 0.977143,0 0.438959,0.08779 0.863899,0.237922 1.302857,0.325714 0.106463,0.02129 0.220385,-0.02633 0.325715,0 0.333082,0.08327 0.644061,0.242444 0.977143,0.325714 0.105329,0.02633 0.217142,0 0.325714,0 0.714905,0 1.284154,-0.07636 1.954286,0.325715 0.263324,0.157994 0.434285,0.434285 0.651428,0.651428 0.108572,0.108572 0.188381,0.257048 0.325714,0.325714 0.307087,0.153544 0.64702,0.231394 0.977143,0.325715 0.430428,0.122979 0.914187,0.103617 1.302857,0.325714 0.399939,0.228536 0.60864,0.700765 0.977143,0.977143 0.08686,0.06514 0.219252,-0.02129 0.325715,0 0.438958,0.08779 0.887223,0.159461 1.302857,0.325714 0.142561,0.05702 0.205817,0.229797 0.325714,0.325714 0.4239,0.339121 0.878957,0.638023 1.302857,0.977143 0.119897,0.09592 0.194052,0.246717 0.325714,0.325715 1.037816,0.622689 2.219328,1.005882 3.257143,1.628571 0.131662,0.079 0.20288,0.233588 0.325715,0.325714 0.313167,0.234876 0.641468,0.450024 0.977142,0.651429 0.208177,0.124906 0.479762,0.154048 0.651429,0.325714 0.276804,0.276804 0.338261,0.742267 0.651429,0.977143 0.173714,0.130286 0.45721,-0.09711 0.651428,0 0.02894,0.01447 1.2328513,1.246852 1.3028573,1.302857 0.3056788,0.244543 0.663975,0.416553 0.9771428,0.651429 0.1228346,0.09213 0.2171429,0.217143 0.3257143,0.325714 0.4342857,0.434286 0.8685715,0.868571 1.3028572,1.302857 0.1085714,0.1085716 0.2335883,0.2028799 0.3257143,0.3257144 0.2348759,0.3131679 0.3746246,0.700339 0.6514285,0.9771429 0.1716665,0.1716665 0.4618547,0.1740551 0.6514286,0.3257143 0.3596913,0.287753 0.6514286,0.6514285 0.9771429,0.9771428 0.3257142,0.3257143 0.682255,0.6232775 0.9771428,0.9771429 1.166815,1.400178 0.2426473,0.4852945 0.9771429,1.9542857 0.2831196,0.5662393 0.6091756,1.1134173 0.97714283,1.6285714 1.52589864,2.13625813 -0.38647513,-1.7500931 1.62857143,2.28000003 C 1.130686,-0.3043422 1.1361199,0.06558724 1.3028571,0.36571429 1.6830766,1.0501092 2.1907677,1.6560854 2.6057143,2.32 2.7343838,2.5258712 2.8647337,2.7379964 2.9314286,2.9714286 3.0835163,3.5037358 3.1050551,4.0676928 3.2571429,4.6 3.3238378,4.8334321 3.4742857,5.0342857 3.5828571,5.2514286 3.9085714,5.9028571 4.3296852,6.5147699 4.56,7.2057143 4.6629999,7.514714 4.5196,7.8596581 4.56,8.1828571 4.9707933,11.469203 4.621703,8.69368 5.2114286,10.462857 c 0.1415598,0.42468 0.2521208,0.861297 0.3257143,1.302857 0.035698,0.214189 -0.068667,0.445429 0,0.651429 0.1535431,0.460629 0.4978853,0.842227 0.6514285,1.302857 0.068667,0.206 -0.035698,0.43724 0,0.651429 0.073594,0.44156 0.2521209,0.861296 0.3257143,1.302857 0.035698,0.214188 0,0.434285 0,0.651428 0,0.542857 0,1.085715 0,1.628572 0,0.325714 0,0.651428 0,0.977143 0,0.108571 -0.034333,0.222714 0,0.325714 0.076772,0.230315 0.2668332,0.415904 0.3257143,0.651428 0.1283771,0.513509 -0.1039116,1.109014 0,1.628572 0.087792,0.438958 0.2379226,0.863899 0.3257143,1.302857 0.021293,0.106463 0,0.217143 0,0.325714 0,0.542857 -0.076772,1.091171 0,1.628572 0.034333,0.240333 0.2858026,0.411958 0.3257143,0.651428 0.071396,0.428377 0,0.868572 0,1.302857 0,0.217143 -0.068667,0.445429 0,0.651429 0.1535432,0.46063 0.4711012,0.852039 0.6514285,1.302857 0.040323,0.100806 0,0.217143 0,0.325714 0,0.112565 -0.043939,2.473898 0,2.605715 0.048555,0.145664 0.2570477,0.188381 0.3257143,0.325714 0.092306,0.184612 -0.079877,1.309062 0,1.628571 0.08327,0.333082 0.2583812,0.640478 0.3257143,0.977143 0.042585,0.212926 -0.042585,0.438503 0,0.651429 0.067333,0.336666 0.2424438,0.644061 0.3257143,0.977143 0.026332,0.105329 -0.021293,0.219251 0,0.325714 0.087792,0.438958 0.2379226,0.863899 0.3257143,1.302857 0.021293,0.106463 0,0.217143 0,0.325714 0,0.434286 0,0.868572 0,1.302858 0,0.217142 -0.059654,0.44264 0,0.651428 0.1606226,0.562179 0.490806,1.066393 0.6514287,1.628572 0.05965,0.208788 0,0.434285 0,0.651428 0,0.434286 -0.06142,0.872936 0,1.302857 0.04855,0.339883 0.283129,0.636461 0.325714,0.977143 0.06733,0.538665 0,1.085714 0,1.628572 0,1.194285 0,2.388571 0,3.582857 0,0.181799 -0.0497,1.479471 0,1.628571 0.04856,0.145664 0.257048,0.188381 0.325714,0.325714 0.06459,0.129183 -0.02871,1.398929 0,1.628572 0.08192,0.655314 0.2438,1.298971 0.325715,1.954286 0.02693,0.215466 -0.05267,0.440769 0,0.651428 0.166541,0.666164 0.50247,1.283971 0.651428,1.954286 0.07066,0.317958 0,0.651428 0,0.977143 0,0.325714 0,0.651428 0,0.977143 0,0.977142 0,1.954285 0,2.931428 0,0.30677 -0.06176,1.443285 0,1.628572 0.04856,0.145663 0.257048,0.188381 0.325715,0.325714 0.0642,0.12841 0,1.30686 0,1.628571 0,1.302857 0,2.605715 0,3.908572 0,1.302857 0,2.605714 0,3.908571 0,0.76 0,1.52 0,2.28 0,0.217143 0,0.434286 0,0.651429 0,0.108571 0.04855,0.228605 0,0.325714 -0.06867,0.137333 -0.257048,0.188381 -0.325715,0.325714 -0.103365,0.20673 0.105596,1.522976 0,1.628572 -0.171666,0.171666 -0.479762,0.154047 -0.651428,0.325714 -0.0016,0.0016 0.0025,0.964602 0,0.977143 -0.06733,0.336666 -0.172171,0.670056 -0.325715,0.977143 -0.06867,0.137333 -0.300472,0.17426 -0.325714,0.325714 -0.08925,0.535471 0.07677,1.09117 0,1.628571 -0.05762,0.403362 -0.9056176,1.413996 -0.9771427,1.628572 -0.1029999,0.309 0.053547,0.65586 0,0.977143 -0.056444,0.338661 -0.2424438,0.644061 -0.3257143,0.977143 -0.026332,0.105329 0.026332,0.220384 0,0.325714 -0.8227227,3.290891 0.1176134,-0.235227 -0.6514286,1.302857 -0.048555,0.09711 0,0.217143 0,0.325714 0,0.217143 0.042585,0.438503 0,0.651429 -0.2728972,1.364486 -0.336631,0.673262 -0.9771428,1.954286 C 7.3378854,92.198515 7.2742857,92.542857 7.1657143,92.868571 7.0571429,93.194286 6.9485714,93.52 6.84,93.845714 c -0.1085714,0.325715 -0.2583811,0.640477 -0.3257143,0.977143 -0.042585,0.212926 0.052665,0.440769 0,0.651429 -0.1971011,0.788404 -0.4904463,0.653928 -0.9771428,1.302857 -0.3742689,0.499025 -0.3257143,0.520241 -0.3257143,0.977143 0,0.108571 0,0.217143 0,0.325714 0,0.108571 0.060225,0.235377 0,0.325714 -0.6339502,0.950926 -1.6338547,0.82089 -2.28,1.628576 -0.3391202,0.4239 -0.6380227,0.87895 -0.9771429,1.30285 -0.095918,0.1199 -0.2335884,0.20288 -0.3257143,0.32572 -0.2348759,0.31317 -0.3746246,0.70034 -0.65142854,0.97714 -0.1716665,0.17167 -0.47976207,0.15405 -0.65142857,0.32571 -0.55161348,0.55162 -0.0998151,1.07696 -0.65142858,1.62858 -0.1716665,0.17166 -0.44325236,0.2008 -0.65142857,0.32571 -0.33567404,0.2014 -0.70033894,0.37462 -0.97714284,0.65143 -0.383858,0.38386 -0.5932849,0.919 -0.9771429,1.30286 -0.1716665,0.17166 -0.4618546,0.17405 -0.6514285,0.32571 -0.3596913,0.28775 -0.6174516,0.68939 -0.9771429,0.97714 -0.1895739,0.15166 -0.4432524,0.20081 -0.6514286,0.32572 -0.335674,0.2014 -0.6639749,0.41655 -0.9771428,0.65143 -0.7469772,0.74697 0.1703408,-0.12776 -1.3028572,0.97714 -0.2456691,0.18425 -0.3767621,0.51409 -0.6514285,0.65143 -0.3070864,0.15354 -0.6827373,0.14907 -0.9771429,0.32571 -0.2633244,0.158 -0.3881042,0.49344 -0.6514286,0.65143 -0.2944054,0.17664 -0.6700564,0.17217 -0.9771424,0.32571 -0.350133,0.17507 -0.627011,0.47637 -0.977143,0.65143 -0.307087,0.15355 -0.691473,0.13527 -0.977143,0.32572 -0.383267,0.25551 -0.593876,0.72163 -0.977143,0.97714 -0.28567,0.19045 -0.651429,0.21714 -0.977143,0.32571 -0.542857,0.43429 -1.062867,0.89879 -1.628571,1.30286 -0.585406,0.41815 -1.368881,0.559 -1.954286,0.97714 -0.37483,0.26774 -0.651429,0.65143 -0.977143,0.97715 -0.542857,0.32571 -1.091725,0.64161 -1.628571,0.97714 -0.331958,0.20747 -0.605772,0.52764 -0.977143,0.65143 -0.626524,0.20884 -1.31359,0.16554 -1.954286,0.32571 -0.235524,0.0589 -0.417996,0.25902 -0.651428,0.32572 -0.532308,0.15208 -1.119726,0.10763 -1.628572,0.32571 -0.282257,0.12097 -0.356158,0.56707 -0.651428,0.65143 -0.521971,0.14913 -1.089035,-0.06 -1.628572,0 -0.444913,0.0494 -0.858662,0.27019 -1.302857,0.32571 -0.646398,0.0808 -1.302857,0 -1.954286,0 -1.411428,0 -2.822857,0 -4.234285,0 -5.32,0 -10.64,0 -15.96,0 -1.628572,0 -3.257143,0 -4.885715,0 -0.76,0 -1.52,0 -2.28,0 -0.108571,0 -0.21862,-0.0178 -0.325714,0 -0.546075,0.091 -1.082496,0.23471 -1.628571,0.32572 -0.107095,0.0178 -0.217143,0 -0.325715,0 -0.542857,0 -1.085714,0 -1.628571,0 -0.434286,0 -0.870727,-0.0432 -1.302857,0 -0.657137,0.0657 -1.300509,0.23232 -1.954286,0.32571 -0.9576,0.1368 -1.973829,-0.1368 -2.931429,0 -2.648654,0.37838 -0.304583,0.32572 -1.954285,0.32572 -0.285617,0 -2.466536,-0.0557 -2.605715,0 -0.450818,0.18032 -0.852038,0.4711 -1.302857,0.65143 -0.100806,0.0403 -0.217143,0 -0.325714,0 -0.542857,0 -1.085714,0 -1.628571,0 -0.108572,0 -0.219252,-0.0213 -0.325715,0 -2.928019,0.5856 0.481727,0.0826 -2.931428,0.65142 -0.107094,0.0178 -0.21862,-0.0178 -0.325715,0 -0.546075,0.091 -1.079238,0.25705 -1.628571,0.32572 -0.323199,0.0404 -0.651429,0 -0.977143,0 -0.434286,0.10857 -0.863899,0.23792 -1.302857,0.32571 -0.106463,0.0213 -0.224908,-0.0403 -0.325714,0 -0.450819,0.18033 -0.852039,0.4711 -1.302857,0.65143 -0.201613,0.0806 -0.434286,0 -0.651429,0 -0.542857,0 -1.085714,0 -1.628571,0 -1.737143,0 -3.474286,0 -5.211429,0 -0.176953,0 -2.278,-0.0655 -2.605714,0 -0.438959,0.0878 -0.863899,0.23792 -1.302857,0.32572 -0.31939,0.0639 -0.651429,0 -0.977143,0 -0.868572,0 -1.737146,0 -2.605716,0 -0.43428,0 -0.87293,0.0614 -1.30286,0 -2.93826,-0.41976 -1.07474,-0.18726 -4.23428,-0.97715 -0.10533,-0.0263 -0.21862,0.0178 -0.32572,0 -0.54607,-0.091 -1.08249,-0.2347 -1.62857,-0.32571 -0.10709,-0.0178 -0.21862,0.0178 -0.32571,0 -0.54608,-0.091 -1.08053,-0.24742 -1.62857,-0.32572 -0.42992,-0.0614 -0.86857,0 -1.30286,0 -0.76,0 -1.52,0 -2.28,0 -0.3944,0 -0.93594,0.0734 -1.30286,0 -1.36107,-0.27221 -1.01744,-0.0403 -1.62857,-0.65142 -0.21714,-0.21715 -0.39592,-0.48109 -0.65143,-0.65143 -0.0903,-0.0602 -0.21714,0 -0.32571,0 -0.32572,0 -0.65776,0.0639 -0.97714,0 -0.23806,-0.0476 -0.41337,-0.27811 -0.65143,-0.32572 -0.31939,-0.0639 -0.65776,0.0639 -0.97715,0 -0.23805,-0.0476 -0.42111,-0.24894 -0.65142,-0.32571 -0.103,-0.0343 -0.21715,0 -0.32572,0 -0.32571,0 -0.65775,0.0639 -0.97714,0 -0.23806,-0.0476 -0.42112,-0.24894 -0.65143,-0.32572 -0.309,-0.103 -0.66115,0.079 -0.97714,0 -0.23553,-0.0589 -0.42112,-0.24894 -0.65143,-0.32571 -0.48857,-0.16286 -0.32572,0.32571 -0.97714,0 -0.27467,-0.13733 -0.37677,-0.5141 -0.65143,-0.65143 -0.40039,-0.20019 -0.88723,-0.15946 -1.30286,-0.32571 -0.14256,-0.057 -0.19796,-0.24055 -0.32571,-0.32572 -0.202,-0.13466 -0.44326,-0.20081 -0.65143,-0.32571 -0.33568,-0.20141 -0.62701,-0.47636 -0.97715,-0.65143 -1.62127,-0.81064 -1.20224,-0.36128 -2.28,-0.97714 -1.20025,0.55531 -1.31673,-0.92033 -1.95428,-1.30286 -0.41635,-0.24981 -0.89886,-0.3821 -1.30286,-0.65143 -0.25551,-0.17034 -0.41163,-0.45959 -0.65143,-0.65143 -2.01871,-1.61497 -0.10633,0.0377 -1.62857,-0.97714 -0.12775,-0.0852 -0.18005,-0.27716 -0.32571,-0.32571 -0.206,-0.0687 -0.43429,0 -0.65143,0 -0.10857,0 -0.29138,0.103 -0.32572,0 -0.103,-0.309 0.103,-0.66815 0,-0.97715 -0.0343,-0.103 -0.2423,0.0695 -0.32571,0 -0.58978,-0.49148 -1.2164,-0.98088 -1.62857,-1.62857 -2.28,-3.58286 0.32571,-0.65143 -0.97714,-2.93143 -0.26934,-0.47133 -0.70781,-0.83152 -0.97715,-1.30285 -0.1696,-0.2968 -0.33684,-1.31399 -0.65143,-1.62858 -0.17166,-0.17166 -0.47976,-0.15404 -0.65142,-0.32571 -0.27681,-0.2768 -0.47637,-0.62701 -0.65143,-0.97714 -0.0486,-0.0971 0.0768,-0.24895 0,-0.32572 -0.0768,-0.0768 -0.24895,0.0768 -0.32572,0 -0.16285,-0.16285 0.16286,-0.81428 0,-0.97714 -0.0768,-0.0768 -0.29138,0.103 -0.32571,0 -0.103,-0.309 0.18067,-0.70613 0,-0.97714 -0.12045,-0.18068 -0.43429,0 -0.65143,0 -0.32571,-0.54286 -0.67399,-1.0728 -0.97714,-1.62857 -0.76121,-1.395556 -1.0899,-2.146408 -1.62857,-3.582861 -0.12056,-0.321473 -0.17218,-0.670057 -0.32572,-0.977143 -0.17506,-0.350133 -0.41655,-0.663975 -0.65143,-0.977143 -0.0921,-0.122835 -0.25704,-0.188381 -0.32571,-0.325714 -0.0486,-0.09711 0,-0.217143 0,-0.325715 -0.10857,-0.325714 -0.17217,-0.670056 -0.32572,-0.977143 -0.29844,-0.596891 -0.35298,-0.05454 -0.65142,-0.651428 -0.0486,-0.09711 0.0486,-0.228605 0,-0.325714 -0.17507,-0.350133 -0.47637,-0.627011 -0.65143,-0.977143 -0.0486,-0.09711 0.0343,-0.222715 0,-0.325715 -0.9227,-1.845394 0.12138,0.485547 -0.32572,-1.302857 -0.0589,-0.235524 -0.23555,-0.426019 -0.32571,-0.651428 -0.12751,-0.318777 -0.14907,-0.682738 -0.32572,-0.977143 -0.15799,-0.263325 -0.48108,-0.395917 -0.65142,-0.651429 -0.0602,-0.09034 0,-0.217143 0,-0.325714 0,-0.108571 0,-0.217143 0,-0.325714 0,-0.542857 0,-1.085715 0,-1.628572 0,-0.325714 0,-0.651428 0,-0.977143 0,-0.108571 0.0298,-0.22132 0,-0.325714 -0.18865,-0.660246 -0.46279,-1.29404 -0.65143,-1.954286 -0.0298,-0.104394 0,-0.217142 0,-0.325714 0,-0.542857 0,-1.085714 0,-1.628571 0,-0.108572 0.0179,-0.21862 0,-0.325715 -0.091,-0.546075 -0.2347,-1.082496 -0.32572,-1.628571 -0.0714,-0.428377 0,-0.868571 0,-1.302857 0,-0.651429 0,-1.302857 0,-1.954286 0,-1.085714 0,-2.171428 0,-3.257143 0,-0.322061 0.0708,-1.019738 0,-1.302857 -0.0833,-0.333082 -0.23139,-0.64702 -0.32571,-0.977143 -0.10857,-0.434285 -0.21714,-0.868571 -0.32572,-1.302857 0,-0.108571 0.0213,-0.219251 0,-0.325714 -0.0878,-0.438959 -0.23792,-0.863899 -0.32571,-1.302857 -0.0499,-0.249614 0.0866,-0.760732 0,-0.977143 -0.18033,-0.450818 -0.4711,-0.852039 -0.65143,-1.302857 -0.0403,-0.100806 0.0263,-0.220385 0,-0.325715 -0.0833,-0.333082 -0.24244,-0.64406 -0.32571,-0.977142 -0.0601,-0.240447 0,-1.396232 0,-1.628572 0,-0.217143 0,-0.434286 0,-0.651428 0,-0.108572 -0.10857,-0.325715 0,-0.325715 0.10857,0 0.0651,0.412572 0,0.325715 -0.37985,-0.50646 -0.65143,-1.085715 -0.97715,-1.628572 z"
         id="path5591"
         inkscape:connector-curvature="0" />
    </clipPath>
    <clipPath
       clipPathUnits="userSpaceOnUse"
       id="clipPath5599">
      <rect
         style="fill:none;fill-opacity:1;stroke:#528c8b;stroke-opacity:1"
         id="rect5601"
         width="123.77143"
         height="70.68"
         x="-10.097148"
         y="1.3428571"
         d="M -10.097148,1.3428571 H 113.67428 V 72.022857 H -10.097148 Z" />
    </clipPath>
    <clipPath
       clipPathUnits="userSpaceOnUse"
       id="clipPath5615">
      <path
         style="fill:none;stroke:#000000;stroke-width:1px;stroke-linecap:butt;stroke-linejoin:miter;stroke-opacity:1"
         d="m -14.33143,49.222858 c 1.13092,0.418122 2.07997,0.325714 3.25714,0.325714 0.32572,0 0.65919,-0.07066 0.97715,0 1.19738,0.266085 1.77322,0.88307 2.93142,0.651428 0.77507,-0.155012 1.50494,-0.496416 2.28,-0.651428 0.31939,-0.06388 0.65776,0.06388 0.97715,0 4.76202,-0.952405 0.59542,-0.311713 3.25714,-0.977143 0.53708,-0.13427 1.10337,-0.150648 1.62857,-0.325714 0.46063,-0.153543 0.84823,-0.480942 1.30286,-0.651429 0.41915,-0.157181 0.87818,-0.184154 1.30286,-0.325714 0.23031,-0.07677 0.42111,-0.248943 0.65142,-0.325714 0.42468,-0.14156 0.90247,-0.125519 1.30286,-0.325715 0.27467,-0.137333 0.38811,-0.493434 0.65143,-0.651428 2.39398,-0.797995 0.16588,0.106554 1.30286,-0.651429 0.202,-0.134666 0.43428,-0.217143 0.65143,-0.325714 0.32571,0 0.69784,0.167578 0.97714,0 0.46549,-0.279298 0.51165,-1.02356 0.97714,-1.302857 0.62453,-0.374717 1.34829,-0.573144 1.95429,-0.977143 0.41628,-0.277524 3.05223,-2.4008 3.25714,-2.605714 0.17167,-0.171667 0.17029,-0.464926 0.32571,-0.651429 -0.23403,-1.284823 1.4289,-1.103176 1.95429,-1.628571 0.383858,-0.383858 0.593285,-0.919 0.977143,-1.302858 0.171666,-0.171666 0.479762,-0.154047 0.651428,-0.325714 0.383858,-0.383858 0.638023,-0.878957 0.977143,-1.302857 0.09592,-0.119897 0.217143,-0.217143 0.325715,-0.325714 0.217142,-0.217143 0.405759,-0.467177 0.651428,-0.651429 0.194219,-0.145664 0.505765,-0.131496 0.651429,-0.325714 0.206,-0.274667 0.172171,-0.670057 0.325714,-0.977143 0.06867,-0.137333 0.257048,-0.188381 0.325714,-0.325714 0.153543,-0.307087 0.149071,-0.682738 0.325715,-0.977143 0.157994,-0.263325 0.434285,-0.434286 0.651428,-0.651429 0.108572,-0.108571 0.257048,-0.188381 0.325714,-0.325714 0.153544,-0.307086 0.172172,-0.670056 0.325715,-0.977143 0.06867,-0.137333 0.240544,-0.197958 0.325714,-0.325714 0.134666,-0.202 0.200809,-0.443253 0.325714,-0.651429 0.201405,-0.335674 0.450024,-0.641469 0.651429,-0.977143 0.498151,-0.830252 0.804706,-1.775462 1.302857,-2.605714 0.201404,-0.335674 0.450024,-0.641469 0.651429,-0.977143 0.124905,-0.208176 0.23555,-0.426019 0.325714,-0.651428 0.127511,-0.318777 0.135267,-0.691473 0.325714,-0.977143 0.255511,-0.383267 0.721632,-0.593876 0.977143,-0.977143 0.190447,-0.28567 0.172171,-0.670056 0.325714,-0.977143 1.35439,-2.031584 0.07813,0.06849 0.977143,-1.954286 0.394398,-0.887395 0.821061,-1.76257 1.302857,-2.605714 0.314093,-0.549663 0.694023,-1.062332 0.977143,-1.628571 0.153543,-0.307087 0.217143,-0.651429 0.325714,-0.977143 0.217143,-0.651429 0.396408,-1.316732 0.651429,-1.954286 0.297815,-0.744538 0.51832,-0.863866 0.977143,-1.6285717 C 34.866433,8.9178476 35.50718,7.2013902 35.82857,6.88 c 0.153543,-0.1535432 0.470755,0.1204492 0.651429,0 C 36.883997,6.6106675 36.74299,5.8684706 37.131427,5.5771429 37.611562,5.217042 38.153209,5.4878659 38.434284,4.9257143 38.542856,4.6 38.651427,4.2742857 38.759999,3.9485715 c 0.108571,0 0.248942,0.076772 0.325714,0 0.171666,-0.1716665 0.154048,-0.4797621 0.325714,-0.6514286 0.593905,-0.593905 0.603,-0.027858 0.977143,-0.6514286 2.158902,-4.3178046 -0.826792,1.1149181 1.628571,-1.95428572 0.214479,-0.26809803 0.172172,-0.67005648 0.325715,-0.97714286 0.06867,-0.13733324 0.217143,-0.21714284 0.325714,-0.32571424 0.108571,-0.1085715 0.217143,-0.2171429 0.325714,-0.3257143 C 43.42857,-1.3714285 43.862856,-1.8057143 44.297141,-2.24 c 0.217143,-0.2171428 0.467177,-0.4057594 0.651429,-0.6514285 0.234876,-0.3131679 0.374625,-0.700339 0.651429,-0.9771429 0.07677,-0.076772 0.248942,0.076772 0.325714,0 0.171666,-0.1716665 0.174055,-0.4618546 0.325714,-0.6514286 0.571663,-0.7145783 1.358331,-1.2590046 1.954286,-1.9542857 0.551851,-0.6438268 0.966418,-1.4245631 1.628571,-1.9542857 0.4239,-0.3391202 0.878957,-0.6380227 1.302857,-0.977143 1.521902,-1.2175206 -2.669138,1.5622827 1.628572,-1.3028566 0.760672,-0.507115 1.845042,-0.795743 2.605714,-1.302857 0.600168,-0.400112 1.21842,-1.057569 1.954286,-1.302857 0.556799,-0.752406 1.319281,-0.144285 1.954286,-0.325715 0.562179,-0.160622 1.061353,-0.509624 1.628571,-0.651428 0.315989,-0.079 0.654702,0.04606 0.977143,0 0.443152,-0.06331 0.861296,-0.252121 1.302857,-0.325714 0.214188,-0.0357 0.434286,0 0.651429,0 0.868571,0 1.737142,0 2.605714,0 1.544279,0 3.386611,-0.173987 4.885714,0.325714 0.371372,0.12379 0.645186,0.443955 0.977143,0.651428 0.536846,0.335529 1.091725,0.641614 1.628571,0.977143 0.331958,0.207474 0.597371,0.556486 0.977143,0.651429 0.526649,0.131662 1.085715,0 1.628572,0 0.108571,0 0.220384,-0.02633 0.325714,0 0.333082,0.08327 0.651429,0.217143 0.977143,0.325714 0.325714,0.108572 0.670056,0.172171 0.977143,0.325714 0.700264,0.350133 1.234669,0.99445 1.954285,1.302858 0.411457,0.1763376 0.878178,0.1841536 1.302858,0.3257136 0.735865,0.245288 1.354117,0.9027449 1.954285,1.302857 0.605999,0.4039988 1.329757,0.6024257 1.954286,0.9771429 0.131662,0.078997 0.217143,0.2171428 0.325714,0.3257142 0.434286,0.4342858 0.791835,0.9621754 1.302857,1.3028572 0.180674,0.1204492 0.457211,-0.097109 0.651429,0 0.274666,0.1373332 0.366306,0.5373795 0.651429,0.6514286 0.302418,0.1209672 0.694343,-0.1615996 0.977142,0 1.02134,0.5836228 1.623308,1.9507766 2.605715,2.6057142 0.28567,0.1904469 0.670056,0.1721711 0.977143,0.3257143 0.350132,0.1750662 0.651428,0.4342857 0.977142,0.6514286 0.325715,0.2171429 0.671464,0.4068855 0.977143,0.65142858 0.239794,0.1918353 0.388104,0.4934339 0.651429,0.65142854 0.294405,0.17664338 0.691472,0.1352674 0.977143,0.32571429 0.383267,0.25551131 0.582156,0.7401509 0.977143,0.97714289 0.186198,0.111719 0.449816,-0.0806448 0.651428,0 0.363461,0.1453845 0.627011,0.4763624 0.977143,0.6514286 0.307086,0.1535431 0.70905,0.1112358 0.97714,0.3257142 0.30568,0.2445431 0.34575,0.7325999 0.65143,0.9771429 0.041,0.03277 1.84376,0.5961654 1.95429,0.6514286 0.13733,0.068667 0.20581,0.2297966 0.32571,0.3257143 0.4239,0.3391201 0.87896,0.6380226 1.30286,0.9771428 0.1199,0.095918 0.20582,0.2297966 0.32571,0.3257143 0.4239,0.3391202 0.85118,0.6760199 1.30286,0.9771429 2.27341,1.5156064 -1.60136,-1.4453098 1.62857,0.9771428 0.12284,0.092126 0.21714,0.2171429 0.32572,0.3257143 0.43428,0.4342857 0.86857,0.8685714 1.30285,1.3028571 0.10857,0.1085715 0.23359,0.2028798 0.32572,0.3257143 0.23487,0.3131679 0.33826,0.742267 0.65143,0.977143 0.17371,0.130286 0.45721,-0.09711 0.65142,0 0.27467,0.137333 0.43429,0.434286 0.65143,0.651429 0.10857,0.108571 0.24055,0.197958 0.32572,0.325714 0.13466,0.202 0.24894,0.421114 0.32571,0.651429 0.0343,0.103 -0.0768,0.248942 0,0.325714 0.17167,0.171667 0.47976,0.154048 0.65143,0.325714 0.10737,0.107368 -0.0786,1.067155 0,1.302857 0.0486,0.145664 0.21714,0.217143 0.32571,0.325715 0.21715,0.217143 0.5141,0.376762 0.65143,0.651428 0.0971,0.194219 -0.13028,0.477715 0,0.651429 1.33143,1.775233 0.62286,-0.373334 1.62857,1.302857 0.17665,0.294406 0.11972,0.702476 0.32572,0.977143 0.14566,0.194218 0.47976,0.154048 0.65143,0.325714 0.2846,0.284601 0.52423,1.374173 0.65143,1.628572 0.50033,1.000665 0.18371,-0.538716 0.97714,0.651428 0.12045,0.180674 -0.0687,0.445429 0,0.651429 0.0485,0.145664 0.25705,0.188381 0.32571,0.325714 0.0486,0.09711 0,0.217143 0,0.325714 0,0.320094 -0.0431,1.868115 0,1.954286 0.0486,0.09711 0.26986,-0.0931 0.32572,0 0.21714,0.542857 0.43428,1.085714 0.65143,1.628571 0,0.108572 -0.0343,0.222715 0,0.325715 1.68302,4.207548 0.29825,0.160965 0.65142,2.28 -1.17521,1.25085 0.53677,1.05525 0.65143,1.628571 0.0852,0.425852 -0.0714,0.87448 0,1.302857 0.0399,0.23947 0.23555,0.42602 0.32572,0.651429 0.12751,0.318777 0.24244,0.644061 0.32571,0.977143 0.0263,0.105329 -0.0485,0.228605 0,0.325714 0.17507,0.350132 0.47636,0.627011 0.65143,0.977143 0.0957,0.191501 -0.0668,1.035481 0,1.302857 0.0833,0.333082 0.21714,0.651429 0.32571,0.977143 0,0.542857 -0.0768,1.09117 0,1.628571 0.0343,0.240333 0.29139,0.411096 0.32572,0.651429 0.0768,0.537401 0,1.085714 0,1.628571 0,0.977143 0,1.954286 0,2.931429 0,0.325714 -0.0404,0.653944 0,0.977143 0.0687,0.549333 0.26458,1.078349 0.32571,1.628571 0.048,0.43163 0,0.868572 0,1.302857 0,1.52 0,3.04 0,4.56 0,0.651429 0,1.302857 0,1.954286 0,0.217143 0,0.434286 0,0.651429 0,0.108571 0.0263,0.220384 0,0.325714 -0.0833,0.333082 -0.26927,0.638481 -0.32571,0.977143 -0.0536,0.321282 0.0404,0.653943 0,0.977143 -0.0687,0.549332 -0.25705,1.079238 -0.32572,1.628571 -0.16226,1.298129 0.33968,1.053134 -0.32571,2.605714 -0.12097,0.282257 -0.53738,0.366306 -0.65143,0.651429 -0.12097,0.302418 0.079,0.661153 0,0.977143 -0.0372,0.148958 -0.25705,0.188381 -0.32571,0.325714 -0.15355,0.307086 -0.24245,0.644061 -0.32572,0.977143 -0.0263,0.10533 0,0.217143 0,0.325714 0,0.434286 0.0852,0.877005 0,1.302857 -0.0301,0.150562 -0.28353,0.178079 -0.32571,0.325715 -0.18143,0.635004 -0.13595,1.321723 -0.32572,1.954285 -0.13952,0.465069 -0.53366,0.831808 -0.65142,1.302857 -0.10533,0.421319 0.0614,0.872937 0,1.302858 -0.0486,0.339882 -0.2314,0.64702 -0.32572,0.977142 -0.12298,0.430428 -0.25212,0.861297 -0.32571,1.302858 -0.0714,0.428376 0.10533,0.881538 0,1.302857 -0.0589,0.235524 -0.24895,0.421114 -0.32572,0.651428 -0.0343,0.103 0.0486,0.228605 0,0.325715 -0.0687,0.137333 -0.23359,0.202879 -0.32571,0.325714 -0.23488,0.313168 -0.47636,0.62701 -0.65143,0.977143 -0.0485,0.09711 0.0153,0.218234 0,0.325714 -0.0934,0.653777 -0.16554,1.31359 -0.32571,1.954286 -0.0589,0.235524 -0.26684,0.415904 -0.32572,0.651428 -0.16017,0.640696 -0.13594,1.321724 -0.32571,1.954286 -0.13952,0.465069 -0.48094,0.848226 -0.65143,1.302857 -0.15718,0.419149 -0.25212,0.861297 -0.32572,1.302857 -0.18633,1.118 0.36329,0.250572 -0.32571,1.628572 -0.74533,1.490666 0.135,-1.382142 -0.65143,0.977143 -0.0343,0.102999 0.0602,0.235377 0,0.325714 -0.17034,0.255511 -0.43428,0.434286 -0.65143,0.651428 -0.10857,0.108572 -0.25704,0.188382 -0.32571,0.325715 -0.0486,0.09711 0.0869,0.260571 0,0.325714 -0.38844,0.291328 -0.92371,0.34811 -1.30286,0.651429 -0.18957,0.151659 -0.23008,0.428284 -0.32571,0.651428 -0.23032,0.537401 -0.42112,1.09117 -0.65143,1.628572 -0.0956,0.223143 -0.1703,0.464925 -0.32572,0.651428 -0.39318,0.471821 -0.90967,0.831037 -1.30285,1.302857 -0.15542,0.186504 -0.19105,0.449429 -0.32572,0.651429 -0.59827,0.897411 -1.21736,1.543079 -1.95428,2.28 -0.21715,0.217143 -0.39592,0.481088 -0.65143,0.651428 -0.12561,0.08374 -0.79575,-0.06046 -0.97714,0 -0.55468,0.184891 -1.0739,0.466539 -1.62858,0.651429 -0.103,0.03433 -0.21714,0 -0.32571,0 -0.43429,0 -0.87192,-0.05387 -1.30286,0 -0.44419,0.05552 -0.86129,0.252121 -1.30285,0.325714 -0.21419,0.0357 -0.43724,-0.0357 -0.65143,0 -0.44156,0.07359 -0.85971,0.262407 -1.30286,0.325715 -0.644881,0.09212 -1.315507,-0.127756 -1.954286,0 -0.775062,0.155012 -1.513188,0.459725 -2.28,0.651428 -0.105329,0.02633 -0.217143,0 -0.325714,0 -0.542857,0 -1.085714,0 -1.628571,0 -0.325715,0 -0.653421,-0.03597 -0.977143,0 -0.656375,0.07293 -1.300509,0.232318 -1.954286,0.325714 -0.10748,0.01535 -0.218234,-0.01535 -0.325714,0 -0.653777,0.0934 -1.298972,0.2438 -1.954286,0.325715 -0.215466,0.02693 -0.436468,-0.03071 -0.651429,0 -0.548043,0.07829 -1.082496,0.234701 -1.628571,0.325714 -0.107094,0.01785 -0.217143,0 -0.325714,0 -0.434286,0 -0.868572,0 -1.302857,0 -0.651429,0 -1.302858,0 -1.954286,0 -0.325714,0 -0.668143,-0.103 -0.977143,0 -0.371371,0.12379 -0.600745,0.543886 -0.977143,0.651429 -0.417576,0.119307 -0.868571,0 -1.302857,0 -0.76,0 -1.52,0 -2.28,0 -3.04,0 -6.08,0 -9.12,0 -0.977143,0 -1.954286,0 -2.931429,0 -0.217142,0 -0.436468,-0.03071 -0.651428,0 -0.548044,0.07829 -1.082496,0.234701 -1.628572,0.325714 -0.107094,0.01785 -0.217142,0 -0.325714,0 -0.542857,0 -1.085714,0 -1.628571,0 -0.325715,0 -0.655861,-0.05355 -0.977143,0 -0.338662,0.05644 -0.644061,0.242444 -0.977143,0.325718 -0.10533,0.0263 -0.21862,-0.0178 -0.325714,0 -0.546076,0.091 -1.080528,0.24742 -1.628572,0.32571 -0.537401,0.0768 -1.09117,-0.0768 -1.628571,0 -0.443152,0.0633 -0.858663,0.27019 -1.302857,0.32572 -0.514616,0.0643 -2.847682,0 -3.257143,0 -2.171429,0 -4.342857,0 -6.514286,0 -2.497143,0 -4.994286,0 -7.491428,0 -0.76,0 -1.52,0 -2.28,0 -0.325715,0 -0.651429,0 -0.977143,0 -0.108572,0 -0.222715,-0.0343 -0.325715,0 -0.554671,0.18489 -1.057819,0.52459 -1.628571,0.65142 -0.52993,0.11777 -1.085714,0 -1.628571,0 -1.737143,0 -3.474286,0 -5.211429,0 -1.302857,0 -2.605714,0 -3.908571,0 -0.325715,0 -0.659185,0.0707 -0.977143,0 -0.670315,-0.14895 -1.29404,-0.46278 -1.954286,-0.65142 -0.10439,-0.0298 -0.21862,0.0178 -0.32571,0 -0.54608,-0.091 -1.0825,-0.23471 -1.62858,-0.32572 -0.10709,-0.0178 -0.21714,0 -0.32571,0 -0.43429,0 -0.86857,0 -1.30286,0 -0.65143,0 -1.30285,0 -1.95428,0 -0.32572,0 -0.65776,0.0639 -0.97715,0 -0.43895,-0.0878 -0.86129,-0.25212 -1.30285,-0.32571 -0.21419,-0.0357 -0.43851,0.0426 -0.65143,0 -0.33667,-0.06733 -0.64406,-0.242448 -0.97714,-0.325718 -0.10533,-0.02633 -0.21715,0 -0.32572,0 -0.67516,0 -1.26027,0.02129 -1.95428,-0.325714 C 5.64571,99.274286 5.74532,98.856335 5.53714,98.731429 5.15328,98.501114 4.65896,98.547275 4.23428,98.405715 3.40387,98.128911 2.7372,97.494317 1.95428,97.102858 1.6472,96.949314 1.29861,96.897696 0.97714,96.777143 0.42969,96.57185 -0.11403,96.356029 -0.65143,96.125715 c -0.65515,-0.280777 -1.91013,-1.056276 -2.28,-1.302857 -0.12776,-0.08517 -0.18315,-0.26869 -0.32571,-0.325715 -0.41564,-0.166253 -0.87818,-0.184154 -1.30286,-0.325714 -0.73127,-0.243758 -0.88526,-0.605485 -1.62857,-0.977143 -0.0971,-0.04855 -0.21925,0.02129 -0.32572,0 -1.02246,-0.204492 -1.34869,-0.340993 -2.28,-0.651428 -0.32571,-0.108572 -0.70247,-0.119715 -0.97714,-0.325715 -0.19422,-0.145664 -0.19105,-0.449429 -0.32571,-0.651428 -0.0852,-0.127756 -0.21715,-0.217143 -0.32572,-0.325715 -0.54286,-0.542857 -1.08571,-1.085714 -1.62857,-1.628571 -0.10857,-0.108571 -0.20288,-0.233588 -0.32571,-0.325714 -0.31317,-0.234876 -0.70034,-0.374625 -0.97715,-0.651429 -0.17166,-0.171666 -0.15404,-0.479762 -0.32571,-0.651428 -0.2846,-0.284601 -1.37417,-0.52423 -1.62857,-0.651429 -0.13734,-0.06867 -0.21715,-0.217143 -0.32572,-0.325714 -0.10857,-0.108572 -0.27716,-0.180051 -0.32571,-0.325715 -0.06,-0.180125 0,-1.626274 0,-1.954285 0,-0.217143 0.10773,-0.462896 0,-0.651429 -0.34492,-0.603599 -0.8578,-1.094507 -1.30286,-1.628571 -0.0983,-0.117955 -0.25705,-0.188381 -0.32571,-0.325715 -0.0486,-0.09711 0,-0.217142 0,-0.325714 0,-0.217143 0.0357,-0.43724 0,-0.651428 -0.0736,-0.441561 -0.26241,-0.859705 -0.32572,-1.302858 -0.0461,-0.32244 0,-0.651428 0,-0.977142 0,-0.217143 0.0527,-0.440769 0,-0.651429 -0.0589,-0.235524 -0.26683,-0.415904 -0.32571,-0.651429 -0.0536,-0.214496 0,-2.407461 0,-2.605714 0,-1.845714 0,-3.691428 0,-5.537143 0,-1.302857 0,-2.605714 0,-3.908571 0,-0.434286 0,-0.868572 0,-1.302857 0,-0.108572 -0.0178,-0.21862 0,-0.325715 0.091,-0.546075 0.24742,-1.080527 0.32571,-1.628571 0.0342,-0.239209 -0.0678,-1.818786 0,-1.954286 0.0486,-0.09711 0.24895,0.07677 0.32572,0 0.0768,-0.07677 -0.0768,-0.248942 0,-0.325714 0.0768,-0.07677 0.24894,0.07677 0.32571,0 0.0768,-0.07677 -0.0343,-0.222714 0,-0.325714 0.0768,-0.230315 0.20081,-0.443253 0.32572,-0.651429 0.45882,-0.764705 0.67932,-0.884033 0.97714,-1.628571 0.0955,-0.238645 0.72729,-2.113431 0.97714,-2.28 0.18068,-0.120449 0.49789,0.153543 0.65143,0 0.15354,-0.153543 -0.0971,-0.45721 0,-0.651429 0.0486,-0.09711 0.24894,0.07677 0.32571,0 0.0768,-0.07677 0,-0.217143 0,-0.325714 0,-0.651429 0,-1.302857 0,-1.954286 0,-0.108571 0,-0.217143 0,-0.325714 0,-0.108572 0.0768,-0.248943 0,-0.325714 -0.0768,-0.07677 -0.21714,0 -0.32571,0 0,-0.108572 0.0768,-0.248943 0,-0.325715 -0.15354,-0.153543 -0.49789,0.153543 -0.65143,0 -0.0768,-0.07677 -0.10857,-0.325714 0,-0.325714 0.10857,0 0,0.434286 0,0.325714 0,-1.136974 -0.0971,-0.45721 0.65143,-1.954285 z"
         id="path5617"
         inkscape:connector-curvature="0" />
    </clipPath>
    <clipPath
       clipPathUnits="userSpaceOnUse"
       id="clipPath5650">
      <rect
         d="M -7.8171535,-4.1942859 H 124.09712 V 71.697148 H -7.8171535 Z"
         ry="0"
         y="2.3199999"
         x="-123.12001"
         height="75.891434"
         width="131.91428"
         id="rect5652"
         style="fill:none;fill-opacity:1;stroke:#528c8b;stroke-opacity:1" />
    </clipPath>
  </defs>
  <sodipodi:namedview
     pagecolor="#ffffff"
     bordercolor="#666666"
     borderopacity="1"
     objecttolerance="10"
     gridtolerance="10"
     guidetolerance="10"
     inkscape:pageopacity="0"
     inkscape:pageshadow="2"
     inkscape:window-width="1196"
     inkscape:window-height="982"
     id="namedview5020"
     showgrid="false"
     inkscape:zoom="4.34"
     inkscape:cx="65.626259"
     inkscape:cy="21.595987"
     inkscape:window-x="0"
     inkscape:window-y="27"
     inkscape:window-maximized="0"
     inkscape:current-layer="svg5018" />
  <path
     style="fill:#528c8b;fill-opacity:1;stroke:#528c8b;stroke-width:1px;stroke-linecap:butt;stroke-linejoin:miter;stroke-opacity:1"
     clip-path="url(#clipPath5650)"
     d="m -44.660156,10.019531 c -2.930864,0.02889 -5.857867,0.516436 -8.63086,1.464844 -4.436787,1.517453 -8.468981,4.2173 -11.52539,7.773437 -4.384165,5.100984 -6.60058,11.656087 -9.771485,17.587891 -7.187575,13.445781 -19.215591,23.560918 -31.269529,32.896485 -3.73344,2.891481 -7.56227,5.779691 -11.9668,7.482421 -2.20227,0.851365 -4.53793,1.396046 -6.89844,1.449219 -2.3605,0.05317 -4.74753,-0.395361 -6.86523,-1.439453 -2.29123,-1.129645 -4.22485,-2.942973 -5.58789,-5.103516 -1.36304,-2.160542 -2.16369,-4.658901 -2.41406,-7.201171 -0.14173,-1.439125 -0.0888,-2.880012 0.0957,-4.306641 h -16.54688 c -0.81309,4.108807 -1.40151,8.248841 -1.41992,12.431641 -0.0316,7.182179 1.75021,14.606085 6.33008,20.138671 3.7917,4.58046 9.24777,7.559551 14.94922,9.248051 5.70145,1.6885 11.68249,2.1775 17.62109,2.47851 13.35493,0.67694 26.766542,0.44813 40.062503,-0.97656 13.021914,-1.39533 25.994305,-3.93941 39.085938,-3.58398 3.039689,0.0825 6.082037,0.32195 9.11914,0.17187 3.037103,-0.15008 6.104592,-0.707734 8.794922,-2.125 4.151843,-2.187191 7.063399,-6.266461 8.732422,-10.652344 1.669023,-4.385882 2.224024,-9.105672 2.667969,-13.777344 0.7132045,-7.505111 1.1733489,-15.066101 0.5605466,-22.580078 -0.6128026,-7.513976 -2.3284946,-15.009995 -5.7714846,-21.716796 -2.431071,-4.735627 -5.726825,-9.05462 -9.832031,-12.44336 -4.105206,-3.388739 -9.033059,-5.827305 -14.271484,-6.773437 -1.730419,-0.312538 -3.489529,-0.460694 -5.248047,-0.44336 z"
     id="path5032"
     inkscape:connector-curvature="0"
     transform="translate(126.37714,-5.2023546)" />
  <path
     style="fill:none;stroke:#000000;stroke-width:1px;stroke-linecap:butt;stroke-linejoin:miter;stroke-opacity:1"
     d="m 15.308571,-37.742857 -1.954285,3.908571"
     id="path5619"
     inkscape:connector-curvature="0"
     clip-path="none" />
</svg>
