<?xml version="1.0" encoding="UTF-8" standalone="no"?>
<!-- Created with Inkscape (http://www.inkscape.org/) -->

<svg
   xmlns:dc="http://purl.org/dc/elements/1.1/"
   xmlns:cc="http://creativecommons.org/ns#"
   xmlns:rdf="http://www.w3.org/1999/02/22-rdf-syntax-ns#"
   xmlns:svg="http://www.w3.org/2000/svg"
   xmlns="http://www.w3.org/2000/svg"
   xmlns:sodipodi="http://sodipodi.sourceforge.net/DTD/sodipodi-0.dtd"
   xmlns:inkscape="http://www.inkscape.org/namespaces/inkscape"
   version="1.1"
   id="svg1609"
   xml:space="preserve"
   width="220"
   height="650"
   viewBox="0 0 220 650"
   sodipodi:docname="person1.svg"
   inkscape:version="0.92.4 (f8dce91, 2019-08-02)"><metadata
     id="metadata1615"><rdf:RDF><cc:Work
         rdf:about=""><dc:format>image/svg+xml</dc:format><dc:type
           rdf:resource="http://purl.org/dc/dcmitype/StillImage" /><dc:title></dc:title></cc:Work></rdf:RDF></metadata><defs
     id="defs1613"><clipPath
       clipPathUnits="userSpaceOnUse"
       id="clipPath1625"><path
         d="M 0,500 H 750 V 0 H 0 Z"
         id="path1623"
         inkscape:connector-curvature="0" /></clipPath><clipPath
       clipPathUnits="userSpaceOnUse"
       id="clipPath1633"><path
         d="M 493.445,48.9918 H 705.434 V 26.3657 H 493.445 Z"
         id="path1631"
         inkscape:connector-curvature="0" /></clipPath><clipPath
       clipPathUnits="userSpaceOnUse"
       id="clipPath1653"><path
         d="m 542.728,151.3 h 67.397 V 42.5833 h -67.397 z"
         id="path1651"
         inkscape:connector-curvature="0" /></clipPath><clipPath
       clipPathUnits="userSpaceOnUse"
       id="clipPath1673"><path
         d="M 513.797,200.767 H 615.525 V 131.384 H 513.797 Z"
         id="path1671"
         inkscape:connector-curvature="0" /></clipPath><clipPath
       clipPathUnits="userSpaceOnUse"
       id="clipPath1693"><path
         d="m 523.77,78.3792 h 27.84 V 41.4906 h -27.84 z"
         id="path1691"
         inkscape:connector-curvature="0" /></clipPath><clipPath
       clipPathUnits="userSpaceOnUse"
       id="clipPath1717"><path
         d="m 651.388,82.1039 h 55.863 v -40.033 h -55.863 z"
         id="path1715"
         inkscape:connector-curvature="0" /></clipPath><clipPath
       clipPathUnits="userSpaceOnUse"
       id="clipPath1733"><path
         d="m 651.388,77.3626 h 21.087 V 46.4198 h -21.087 z"
         id="path1731"
         inkscape:connector-curvature="0" /></clipPath><clipPath
       clipPathUnits="userSpaceOnUse"
       id="clipPath1753"><path
         d="m 574.849,153.435 h 37.185 V 37.7779 h -37.185 z"
         id="path1751"
         inkscape:connector-curvature="0" /></clipPath><clipPath
       clipPathUnits="userSpaceOnUse"
       id="clipPath1777"><path
         d="m 593.586,50.5972 h 42.113 v -9.3041 h -42.113 z"
         id="path1775"
         inkscape:connector-curvature="0" /></clipPath><clipPath
       clipPathUnits="userSpaceOnUse"
       id="clipPath1797"><path
         d="M 557.643,185.827 H 668.084 V 37.9966 H 557.643 Z"
         id="path1795"
         inkscape:connector-curvature="0" /></clipPath><clipPath
       clipPathUnits="userSpaceOnUse"
       id="clipPath1813"><path
         d="m 560.128,185.827 h 37.557 v -39.944 h -37.557 z"
         id="path1811"
         inkscape:connector-curvature="0" /></clipPath><clipPath
       clipPathUnits="userSpaceOnUse"
       id="clipPath1889"><path
         d="m 548.793,261.387 h 48.159 v -22.835 h -48.159 z"
         id="path1887"
         inkscape:connector-curvature="0" /></clipPath><clipPath
       clipPathUnits="userSpaceOnUse"
       id="clipPath1909"><path
         d="m 547.206,294.089 h 10.239 v -21.72 h -10.239 z"
         id="path1907"
         inkscape:connector-curvature="0" /></clipPath><clipPath
       clipPathUnits="userSpaceOnUse"
       id="clipPath1933"><path
         d="m 590.274,312.138 h 23.999 v -60.113 h -23.999 z"
         id="path1931"
         inkscape:connector-curvature="0" /></clipPath><clipPath
       clipPathUnits="userSpaceOnUse"
       id="clipPath1981"><path
         d="M 315.012,45.0098 H 448.947 V 22.3837 H 315.012 Z"
         id="path1979"
         inkscape:connector-curvature="0" /></clipPath><clipPath
       clipPathUnits="userSpaceOnUse"
       id="clipPath2009"><path
         d="m 331.885,268.448 h 71.038 V 48.5987 h -71.038 z"
         id="path2007"
         inkscape:connector-curvature="0" /></clipPath><clipPath
       clipPathUnits="userSpaceOnUse"
       id="clipPath2033"><path
         d="M 318.609,350.889 H 421.265 V 289.063 H 318.609 Z"
         id="path2031"
         inkscape:connector-curvature="0" /></clipPath><clipPath
       clipPathUnits="userSpaceOnUse"
       id="clipPath2129"><path
         d="m 398.07,307.803 h 11.578 V 284.741 H 398.07 Z"
         id="path2127"
         inkscape:connector-curvature="0" /></clipPath><clipPath
       clipPathUnits="userSpaceOnUse"
       id="clipPath2145"><path
         d="m 362.03,309.388 h 14.023 V 280.096 H 362.03 Z"
         id="path2143"
         inkscape:connector-curvature="0" /></clipPath><clipPath
       clipPathUnits="userSpaceOnUse"
       id="clipPath2197"><path
         d="M 144.009,44.2413 H 273.395 V 22.3837 H 144.009 Z"
         id="path2195"
         inkscape:connector-curvature="0" /></clipPath><clipPath
       clipPathUnits="userSpaceOnUse"
       id="clipPath2289"><path
         d="m 117.743,359.583 h 13.13 v -29.271 h -13.13 z"
         id="path2287"
         inkscape:connector-curvature="0" /></clipPath><clipPath
       clipPathUnits="userSpaceOnUse"
       id="clipPath2305"><path
         d="m 153.7,340.199 h 76.506 V 291.662 H 153.7 Z"
         id="path2303"
         inkscape:connector-curvature="0" /></clipPath><clipPath
       clipPathUnits="userSpaceOnUse"
       id="clipPath6600"><rect
         style="fill:#e4cecb;fill-opacity:1;stroke:#528c8b;stroke-width:0.75;stroke-opacity:1"
         id="rect6602"
         width="205.71428"
         height="501.42856"
         x="282.85715"
         y="-505.71429"
         transform="scale(1,-1)" /></clipPath></defs><sodipodi:namedview
     pagecolor="#ffffff"
     bordercolor="#666666"
     borderopacity="1"
     objecttolerance="10"
     gridtolerance="10"
     guidetolerance="10"
     inkscape:pageopacity="0"
     inkscape:pageshadow="2"
     inkscape:window-width="1518"
     inkscape:window-height="966"
     id="namedview1611"
     showgrid="false"
     inkscape:zoom="1.033"
     inkscape:cx="461.27783"
     inkscape:cy="333.33334"
     inkscape:window-x="339"
     inkscape:window-y="40"
     inkscape:window-maximized="0"
     inkscape:current-layer="g1617" /><g
     id="g1617"
     inkscape:groupmode="layer"
     inkscape:label="3445027"
     transform="matrix(1.3333333,0,0,-1.3333333,0,649.99998)"><g
       id="g1619"
       clip-path="url(#clipPath6600)"
       transform="translate(-302.03292,-11.616651)"><g
         id="g1621"
         clip-path="url(#clipPath1625)"><g
           id="g1627"><g
             id="g1629" /><g
             id="g1641"><g
               clip-path="url(#clipPath1633)"
               id="g1639"
               style="opacity:0.19999701"><g
                 transform="translate(705.4339,37.6788)"
                 id="g1637"><path
                   d="m 0,0 c 0,-6.248 -47.455,-11.313 -105.994,-11.313 -58.539,0 -105.995,5.065 -105.995,11.313 0,6.248 47.456,11.313 105.995,11.313 C -47.455,11.313 0,6.248 0,0"
                   style="fill:#352836;fill-opacity:1;fill-rule:nonzero;stroke:none"
                   id="path1635"
                   inkscape:connector-curvature="0" /></g></g></g></g><g
           id="g1643"
           transform="translate(541.0538,121.7502)"><path
             d="m 0,0 23.661,-7.12 c 0,0 6.733,-79.237 32.273,-71.982 25.541,7.256 4.563,108.604 4.563,108.604 L -1.302,24.057 Z"
             style="fill:#5997c0;fill-opacity:1;fill-rule:nonzero;stroke:none"
             id="path1645"
             inkscape:connector-curvature="0" /></g><g
           id="g1647"><g
             id="g1649" /><g
             id="g1661"><g
               clip-path="url(#clipPath1653)"
               id="g1659"
               style="opacity:0.19999701"><g
                 transform="translate(543.8646,121.7075)"
                 id="g1657"><path
                   d="m 0,0 21.3,-7.084 c 0,0 5.05,-75.285 28.959,-71.931 33.314,4.672 4.273,108.608 4.273,108.608 L -1.137,24.054 Z"
                   style="fill:#352836;fill-opacity:1;fill-rule:nonzero;stroke:none"
                   id="path1655"
                   inkscape:connector-curvature="0" /></g></g></g></g><g
           id="g1663"
           transform="translate(541.2998,244.4213)"><path
             d="m 0,0 c 0,0 -19.494,-6.17 -23.874,-20.884 -4.381,-14.715 -8.721,-57.143 11.666,-83.32 20.388,-26.176 71.348,14.158 71.348,14.158 0,0 21.21,58.339 18.573,67.156 -2.637,8.816 -3.505,12.524 -21.402,20.187 C 38.413,4.959 0,0 0,0"
             style="fill:#ff6a59;fill-opacity:1;fill-rule:nonzero;stroke:none"
             id="path1665"
             inkscape:connector-curvature="0" /></g><g
           id="g1667"><g
             id="g1669" /><g
             id="g1681"><g
               clip-path="url(#clipPath1673)"
               id="g1679"
               style="opacity:0.25"><g
                 transform="translate(610.5423,197.5372)"
                 id="g1677"><path
                   d="m 0,0 c -14.662,-8.338 -30.265,-9.212 -46.793,-8.863 -11.396,0.24 -22.771,0.93 -34.154,1.484 -5.261,0.255 -10.531,0.381 -15.798,0.549 0.376,-16.883 4.11,-36.129 15.295,-50.49 20.388,-26.176 71.348,14.159 71.348,14.159 0,0 9.606,26.423 15.085,46.391 C 3.39,2.068 1.73,0.984 0,0"
                   style="fill:#352836;fill-opacity:1;fill-rule:nonzero;stroke:none"
                   id="path1675"
                   inkscape:connector-curvature="0" /></g></g></g></g><g
           id="g1683"
           transform="translate(527.015,155.4918)"><path
             d="M 0,0 C 0,0 -12.44,2.037 -13.645,-16.421 -14.849,-34.879 4.773,-111.39 4.773,-111.39 l 19.822,-2.611 c 0,0 -0.429,93.31 -3.115,98.894 C 18.793,-9.524 14.77,-0.686 0,0"
             style="fill:#5997c0;fill-opacity:1;fill-rule:nonzero;stroke:none"
             id="path1685"
             inkscape:connector-curvature="0" /></g><g
           id="g1687"><g
             id="g1689" /><g
             id="g1701"><g
               clip-path="url(#clipPath1693)"
               id="g1699"
               style="opacity:0.19999701"><g
                 transform="translate(523.77,77.3731)"
                 id="g1697"><path
                   d="m 0,0 c 4.178,-18.296 8.018,-33.272 8.018,-33.272 l 19.822,-2.611 c 0,0 -0.078,16.983 -0.376,36.889 C 18.317,0.475 9.148,0.438 0,0"
                   style="fill:#352836;fill-opacity:1;fill-rule:nonzero;stroke:none"
                   id="path1695"
                   inkscape:connector-curvature="0" /></g></g></g></g><g
           id="g1703"
           transform="translate(522.0853,74.2724)"><path
             d="m 0,0 30.926,-1.394 0.411,-33.725 c 0,0 -36.22,-8.365 -37.013,-4.056 -0.427,2.316 10.264,6.772 10.264,6.772 z"
             style="fill:#352836;fill-opacity:1;fill-rule:nonzero;stroke:none"
             id="path1705"
             inkscape:connector-curvature="0" /></g><g
           id="g1707"
           transform="translate(662.5426,77.3626)"><path
             d="m 0,0 c 0,0 0.003,-0.065 0.008,-0.191 0.013,-0.155 0.032,-0.384 0.056,-0.684 0.062,-0.629 0.178,-1.589 0.394,-2.816 0.435,-2.445 1.253,-5.996 2.987,-9.859 1.712,-3.856 4.433,-7.994 8.557,-10.99 2.069,-1.472 4.476,-2.642 7.134,-3.393 0.654,-0.223 1.351,-0.325 2.035,-0.488 l 0.258,-0.056 0.129,-0.029 0.065,-0.014 c 0.046,-0.006 -0.293,0.026 -0.132,0.01 l 0.037,-0.004 0.591,-0.073 1.185,-0.145 c 0.438,-0.071 0.668,-0.036 0.991,-0.054 l 0.92,-0.034 c 0.651,0.059 1.336,0.065 1.991,0.172 2.624,0.414 5.196,1.446 7.289,3.194 l 0.787,0.65 0.723,0.724 c 0.511,0.459 0.894,1.033 1.353,1.541 0.794,1.11 1.561,2.254 2.105,3.496 2.345,4.907 2.412,10.518 0.62,14.523 -0.879,2.017 -2.175,3.631 -3.555,4.811 -1.387,1.19 -2.866,1.886 -4.097,2.411 C 31.169,3.154 30.14,3.455 29.418,3.566 28.7,3.711 28.317,3.788 28.317,3.788 l 0.093,0.953 c 0,0 0.407,-0.04 1.17,-0.115 0.769,-0.042 1.883,-0.244 3.294,-0.598 1.383,-0.43 3.09,-1.028 4.805,-2.22 1.705,-1.179 3.418,-2.907 4.693,-5.179 1.297,-2.259 2.093,-5.033 2.285,-8.002 0.201,-2.969 -0.184,-6.152 -1.296,-9.246 -0.512,-1.565 -1.29,-3.064 -2.151,-4.547 -0.496,-0.699 -0.924,-1.462 -1.505,-2.121 l -0.838,-1.022 -0.934,-0.954 c -2.506,-2.559 -5.888,-4.412 -9.49,-5.347 -0.901,-0.239 -1.817,-0.36 -2.742,-0.521 l -1.472,-0.104 c -0.472,-0.024 -1.04,-0.075 -1.393,-0.05 l -1.193,0.026 -0.595,0.013 -0.038,0.001 c 0.137,-0.015 -0.227,0.02 -0.205,0.018 l -0.082,0.009 -0.164,0.018 -0.328,0.036 c -0.875,0.109 -1.755,0.163 -2.621,0.353 -3.479,0.605 -6.872,1.824 -9.876,3.536 -2.991,1.736 -5.571,3.92 -7.693,6.226 -2.126,2.312 -3.782,4.748 -5.13,7.065 -2.681,4.658 -4.094,8.852 -4.947,11.83 -0.423,1.493 -0.695,2.695 -0.869,3.544 -0.082,0.442 -0.146,0.78 -0.189,1.008 -0.04,0.258 -0.061,0.391 -0.061,0.391 z"
             style="fill:#7f5e6a;fill-opacity:1;fill-rule:nonzero;stroke:none"
             id="path1709"
             inkscape:connector-curvature="0" /></g><g
           id="g1711"><g
             id="g1713" /><g
             id="g1725"><g
               clip-path="url(#clipPath1717)"
               id="g1723"
               style="opacity:0.39999402"><g
                 transform="translate(662.5426,77.3626)"
                 id="g1721"><path
                   d="m 0,0 c 0,0 0.003,-0.065 0.008,-0.191 0.013,-0.155 0.032,-0.384 0.056,-0.684 0.062,-0.629 0.178,-1.589 0.394,-2.816 0.435,-2.445 1.253,-5.996 2.987,-9.859 1.712,-3.856 4.433,-7.994 8.557,-10.99 2.069,-1.472 4.476,-2.642 7.134,-3.393 0.654,-0.223 1.351,-0.325 2.035,-0.488 l 0.258,-0.056 0.129,-0.029 0.065,-0.014 c 0.046,-0.006 -0.293,0.026 -0.132,0.01 l 0.037,-0.004 0.591,-0.073 1.185,-0.145 c 0.438,-0.071 0.668,-0.036 0.991,-0.054 l 0.92,-0.034 c 0.651,0.059 1.336,0.065 1.991,0.172 2.624,0.414 5.196,1.446 7.289,3.194 l 0.787,0.65 0.723,0.724 c 0.511,0.459 0.894,1.033 1.353,1.541 0.794,1.11 1.561,2.254 2.105,3.496 2.345,4.907 2.412,10.518 0.62,14.523 -0.879,2.017 -2.175,3.631 -3.555,4.811 -1.387,1.19 -2.866,1.886 -4.097,2.411 C 31.169,3.154 30.14,3.455 29.418,3.566 28.7,3.711 28.317,3.788 28.317,3.788 l 0.093,0.953 c 0,0 0.407,-0.04 1.17,-0.115 0.769,-0.042 1.883,-0.244 3.294,-0.598 1.383,-0.43 3.09,-1.028 4.805,-2.22 1.705,-1.179 3.418,-2.907 4.693,-5.179 1.297,-2.259 2.093,-5.033 2.285,-8.002 0.201,-2.969 -0.184,-6.152 -1.296,-9.246 -0.512,-1.565 -1.29,-3.064 -2.151,-4.547 -0.496,-0.699 -0.924,-1.462 -1.505,-2.121 l -0.838,-1.022 -0.934,-0.954 c -2.506,-2.559 -5.888,-4.412 -9.49,-5.347 -0.901,-0.239 -1.817,-0.36 -2.742,-0.521 l -1.472,-0.104 c -0.472,-0.024 -1.04,-0.075 -1.393,-0.05 l -1.193,0.026 -0.595,0.013 -0.038,0.001 c 0.137,-0.015 -0.227,0.02 -0.205,0.018 l -0.082,0.009 -0.164,0.018 -0.328,0.036 c -0.875,0.109 -1.755,0.163 -2.621,0.353 -3.479,0.605 -6.872,1.824 -9.876,3.536 -2.991,1.736 -5.571,3.92 -7.693,6.226 -2.126,2.312 -3.782,4.748 -5.13,7.065 -2.681,4.658 -4.094,8.852 -4.947,11.83 -0.423,1.493 -0.695,2.695 -0.869,3.544 -0.082,0.442 -0.146,0.78 -0.189,1.008 -0.04,0.258 -0.061,0.391 -0.061,0.391 z"
                   style="fill:#352836;fill-opacity:1;fill-rule:nonzero;stroke:none"
                   id="path1719"
                   inkscape:connector-curvature="0" /></g></g></g></g><g
           id="g1727"><g
             id="g1729" /><g
             id="g1741"><g
               clip-path="url(#clipPath1733)"
               id="g1739"
               style="opacity:0.39999402"><g
                 transform="translate(662.5837,52.3139)"
                 id="g1737"><path
                   d="M 0,0 C 1.995,-2.167 4.408,-4.213 7.172,-5.894 8.174,-3.219 9.09,-0.513 9.891,2.232 6.909,4.99 4.809,8.334 3.404,11.499 1.67,15.362 0.852,18.913 0.417,21.358 c -0.216,1.227 -0.332,2.187 -0.394,2.816 -0.024,0.299 -0.043,0.529 -0.056,0.683 -0.005,0.127 -0.008,0.192 -0.008,0.192 l -11.155,-1.211 c 0,0 0.021,-0.133 0.061,-0.391 0.043,-0.228 0.106,-0.566 0.189,-1.008 0.173,-0.849 0.446,-2.051 0.869,-3.545 C -9.224,15.917 -7.811,11.723 -5.13,7.065 -3.782,4.748 -2.126,2.311 0,0"
                   style="fill:#352836;fill-opacity:1;fill-rule:nonzero;stroke:none"
                   id="path1735"
                   inkscape:connector-curvature="0" /></g></g></g></g><g
           id="g1743"
           transform="translate(604.5409,153.3898)"><path
             d="m 0,0 c 0,0 13.912,-0.581 3.823,-34.012 -7.091,-23.497 -18.835,-82.052 -23.987,-80.963 0,0 -15.055,-3.648 -7.317,6.515 C -19.743,-98.296 -36.692,2.498 0,0"
             style="fill:#7f5e6a;fill-opacity:1;fill-rule:nonzero;stroke:none"
             id="path1745"
             inkscape:connector-curvature="0" /></g><g
           id="g1747"><g
             id="g1749" /><g
             id="g1761"><g
               clip-path="url(#clipPath1753)"
               id="g1759"
               style="opacity:0.39999402"><g
                 transform="translate(604.5409,153.3898)"
                 id="g1757"><path
                   d="m 0,0 c 0,0 13.912,-0.581 3.823,-34.012 -7.091,-23.497 -18.835,-82.052 -23.987,-80.963 0,0 -15.055,-3.648 -7.317,6.515 C -19.743,-98.296 -36.692,2.498 0,0"
                   style="fill:#352836;fill-opacity:1;fill-rule:nonzero;stroke:none"
                   id="path1755"
                   inkscape:connector-curvature="0" /></g></g></g></g><g
           id="g1763"
           transform="translate(621.0338,50.5972)"><path
             d="m 0,0 c 0,0 -31.941,-4.595 -26.91,-7.905 5.03,-3.31 41.575,0.292 41.575,0.292 z"
             style="fill:#7f5e6a;fill-opacity:1;fill-rule:nonzero;stroke:none"
             id="path1765"
             inkscape:connector-curvature="0" /></g><g
           id="g1767"
           transform="translate(621.0338,50.5972)"><path
             d="m 0,0 c 0,0 -31.941,-4.595 -26.91,-7.905 5.03,-3.31 41.575,0.292 41.575,0.292 z"
             style="fill:#7f5e6a;fill-opacity:1;fill-rule:nonzero;stroke:none"
             id="path1769"
             inkscape:connector-curvature="0" /></g><g
           id="g1771"><g
             id="g1773" /><g
             id="g1785"><g
               clip-path="url(#clipPath1777)"
               id="g1783"
               style="opacity:0.39999402"><g
                 transform="translate(621.0338,50.5972)"
                 id="g1781"><path
                   d="m 0,0 c 0,0 -31.941,-4.595 -26.91,-7.905 5.03,-3.31 41.575,0.292 41.575,0.292 z"
                   style="fill:#352836;fill-opacity:1;fill-rule:nonzero;stroke:none"
                   id="path1779"
                   inkscape:connector-curvature="0" /></g></g></g></g><g
           id="g1787"
           transform="translate(605.9605,152.9061)"><path
             d="m 0,0 c -13.692,10.832 -8.276,32.921 -8.276,32.921 l -30.527,-2.77 c -1.287,-20.777 -14.481,-53.832 -7.476,-66.399 18.435,-33.076 62.22,-69.769 62.22,-69.769 0,0 -3.233,0.049 -13.448,-3.491 -12.835,-4.447 -1.022,-6.451 10.551,-4.779 11.573,1.671 30.422,-4.158 31.458,3.217 0.102,0.724 -0.134,1.334 -0.623,1.852 6.663,2.662 12.832,8.077 16.632,18.228 C 72.548,-58.84 13.692,-10.832 0,0"
             style="fill:#7f5e6a;fill-opacity:1;fill-rule:nonzero;stroke:none"
             id="path1789"
             inkscape:connector-curvature="0" /></g><g
           id="g1791"><g
             id="g1793" /><g
             id="g1805"><g
               clip-path="url(#clipPath1797)"
               id="g1803"
               style="opacity:0.19999701"><g
                 transform="translate(605.9605,152.9061)"
                 id="g1801"><path
                   d="m 0,0 c -13.692,10.832 -8.276,32.921 -8.276,32.921 l -30.527,-2.77 c -1.287,-20.777 -14.481,-53.832 -7.476,-66.399 18.435,-33.076 62.22,-69.769 62.22,-69.769 0,0 -3.233,0.049 -13.448,-3.491 -12.835,-4.447 -1.022,-6.451 10.551,-4.779 11.573,1.671 30.422,-4.158 31.458,3.217 0.102,0.724 -0.134,1.334 -0.623,1.852 6.663,2.662 12.832,8.077 16.632,18.228 C 72.548,-58.84 13.692,-10.832 0,0"
                   style="fill:#352836;fill-opacity:1;fill-rule:nonzero;stroke:none"
                   id="path1799"
                   inkscape:connector-curvature="0" /></g></g></g></g><g
           id="g1807"><g
             id="g1809" /><g
             id="g1821"><g
               clip-path="url(#clipPath1813)"
               id="g1819"
               style="opacity:0.19999701"><g
                 transform="translate(573.8236,149.2481)"
                 id="g1817"><path
                   d="m 0,0 c 9.176,4.38 16.768,10.635 23.754,17.653 -2.191,9.537 0.107,18.926 0.107,18.926 L -6.666,33.809 C -7.325,23.17 -11.103,9.314 -13.696,-3.365 -8.994,-3.099 -4.389,-2.095 0,0"
                   style="fill:#352836;fill-opacity:1;fill-rule:nonzero;stroke:none"
                   id="path1815"
                   inkscape:connector-curvature="0" /></g></g></g></g><g
           id="g1823"
           transform="translate(601.3075,150.6674)"><path
             d="m 0,0 c 0,0 13.833,-1.596 1.328,-34.201 -8.789,-22.915 -24.78,-80.456 -29.839,-78.993 0,0 -15.281,-2.539 -6.821,7.032 C -26.873,-96.59 -36.411,5.172 0,0"
             style="fill:#7f5e6a;fill-opacity:1;fill-rule:nonzero;stroke:none"
             id="path1825"
             inkscape:connector-curvature="0" /></g><g
           id="g1827"
           transform="translate(573.3233,147.878)"><path
             d="m 0,0 c 0,0 21.869,4.569 3.526,-2.168 0,0 35.677,-15.977 2.737,-4.532 0,0 31.185,-16.189 -1.182,-3.91 0,0 26.432,-14.995 -1.169,-3.069 0,0 25.31,-14.978 -10.355,1.841 C -42.107,4.98 0,0 0,0"
             style="fill:#ffae9e;fill-opacity:1;fill-rule:nonzero;stroke:none"
             id="path1829"
             inkscape:connector-curvature="0" /></g><g
           id="g1831"
           transform="translate(517.4255,223.5368)"><path
             d="m 0,0 c 0,0 -11.897,-53.4 -6.44,-59.025 5.457,-5.626 42.973,-29.291 56.827,-29.502 l 6.256,16.534 -36.13,23.644 c 0,0 13.029,36.753 11.253,41.399 C 29.989,-2.303 16.423,16.841 0,0"
             style="fill:#ff6a59;fill-opacity:1;fill-rule:nonzero;stroke:none"
             id="path1833"
             inkscape:connector-curvature="0" /></g><g
           id="g1835"
           transform="translate(609.7089,132.7083)"><path
             d="m 0,0 c 0,0 -19.864,-10.225 -1.373,-3.905 0,0 -17.65,-34.88 0.727,-5.244 0,0 -14.026,-32.215 3.382,-2.293 0,0 -11.088,-28.294 2.841,-1.648 0,0 -10.226,-27.573 6.883,7.952 C 29.57,30.388 0,0 0,0"
             style="fill:#ffae9e;fill-opacity:1;fill-rule:nonzero;stroke:none"
             id="path1837"
             inkscape:connector-curvature="0" /></g><g
           id="g1839"
           transform="translate(614.0806,231.3056)"><path
             d="m 0,0 c 0,0 30.428,-34.181 35.199,-54.577 2.248,-9.614 -18.691,-44.52 -25.247,-50.425 0,0 -12.455,1.113 -15.554,9.936 l 13.968,37.663 -18.093,25.218 z"
             style="fill:#ff6a59;fill-opacity:1;fill-rule:nonzero;stroke:none"
             id="path1841"
             inkscape:connector-curvature="0" /></g><g
           id="g1843"
           transform="translate(567.4595,166.0356)"><path
             d="m 0,0 c 0,0 -2.932,-9.756 3.981,-10.396 6.912,-0.64 7.134,4.879 6.759,9.509 -0.374,4.63 -4.081,5.826 -4.081,5.826 z"
             style="fill:#ffae9e;fill-opacity:1;fill-rule:nonzero;stroke:none"
             id="path1845"
             inkscape:connector-curvature="0" /></g><g
           id="g1847"
           transform="translate(559.8342,202.7031)"><path
             d="m 0,0 c 0,0 4.023,6.964 18.914,4.583 14.891,-2.381 20.305,-9.101 21.206,-17.175 0.9,-8.074 -11.054,-29.945 -17.553,-29.839 -6.498,0.105 -9.534,8.451 -9.534,8.451 0,0 -2.418,-5.722 -8.619,-5.172 C -1.786,-38.603 -11.693,-12.257 0,0"
             style="fill:#7f5e6a;fill-opacity:1;fill-rule:nonzero;stroke:none"
             id="path1849"
             inkscape:connector-curvature="0" /></g><g
           id="g1851"
           transform="translate(544.6103,202.4735)"><path
             d="m 0,0 c 0,0 -3.598,-14.977 12.263,-21.1 0,0 9.529,25.557 8.443,30.278 C 19.62,13.899 14.945,7.501 11.35,5.788 7.755,4.076 1.257,4.181 0,0"
             style="fill:#352836;fill-opacity:1;fill-rule:nonzero;stroke:none"
             id="path1853"
             inkscape:connector-curvature="0" /></g><g
           id="g1855"
           transform="translate(609.8952,190.532)"><path
             d="m 0,0 c 0,0 -0.275,-15.401 -17.165,-17.347 0,0 -2.812,27.13 -0.576,31.427 2.236,4.297 5.156,-3.069 8.206,-5.629 C -6.484,5.892 -0.167,4.363 0,0"
             style="fill:#352836;fill-opacity:1;fill-rule:nonzero;stroke:none"
             id="path1857"
             inkscape:connector-curvature="0" /></g><g
           id="g1859"
           transform="translate(572.867,168.7227)"><path
             d="M 0,0 C 0,0 -5.721,2.418 -5.616,8.916 -5.511,15.415 9.582,10.838 7.255,5.828 4.928,0.819 0,0 0,0"
             style="fill:#352836;fill-opacity:1;fill-rule:nonzero;stroke:none"
             id="path1861"
             inkscape:connector-curvature="0" /></g><g
           id="g1863"
           transform="translate(561.796,185.9319)"><path
             d="M 0,0 C -0.209,-1.638 0.472,-3.075 1.52,-3.209 2.569,-3.342 3.588,-2.123 3.797,-0.484 4.006,1.154 3.325,2.591 2.277,2.725 1.228,2.858 0.209,1.638 0,0"
             style="fill:#352836;fill-opacity:1;fill-rule:nonzero;stroke:none"
             id="path1865"
             inkscape:connector-curvature="0" /></g><g
           id="g1867"
           transform="translate(583.6858,181.6938)"><path
             d="M 0,0 C -0.209,-1.638 0.472,-3.075 1.52,-3.209 2.569,-3.342 3.588,-2.122 3.797,-0.484 4.006,1.154 3.326,2.591 2.277,2.725 1.228,2.858 0.209,1.638 0,0"
             style="fill:#352836;fill-opacity:1;fill-rule:nonzero;stroke:none"
             id="path1869"
             inkscape:connector-curvature="0" /></g><g
           id="g1871"
           transform="translate(583.8031,187.0981)"><path
             d="M 0,0 C 0,0 0.067,0.123 0.197,0.31 0.263,0.4 0.342,0.516 0.442,0.627 0.547,0.741 0.628,0.886 0.808,0.986 0.971,1.1 1.159,1.226 1.373,1.339 1.585,1.469 1.821,1.536 2.073,1.594 2.327,1.639 2.586,1.743 2.87,1.708 3.152,1.7 3.441,1.666 3.727,1.63 4.003,1.528 4.28,1.421 4.538,1.293 4.808,1.19 4.996,0.953 5.201,0.782 5.407,0.604 5.571,0.409 5.672,0.186 c 0.116,-0.21 0.205,-0.417 0.279,-0.602 0.088,-0.178 0.077,-0.381 0.1,-0.54 0.02,-0.16 0.017,-0.305 0.016,-0.419 -0.006,-0.231 -0.03,-0.36 -0.03,-0.36 0,0 -0.128,0.075 -0.315,0.2 -0.091,0.064 -0.204,0.136 -0.311,0.224 -0.12,0.078 -0.217,0.191 -0.362,0.268 -0.146,0.077 -0.295,0.156 -0.431,0.246 -0.125,0.106 -0.283,0.168 -0.439,0.224 -0.159,0.05 -0.277,0.17 -0.446,0.193 -0.161,0.033 -0.31,0.09 -0.461,0.151 -0.168,0.019 -0.333,0.04 -0.497,0.086 -0.161,0.062 -0.344,0.02 -0.516,0.054 -0.175,0.02 -0.353,0.057 -0.51,0.043 -0.162,0 -0.33,0.018 -0.495,0.033 C 1.097,0.013 0.914,-0.027 0.765,-0.025 0.616,-0.038 0.477,-0.031 0.365,-0.029 0.138,-0.021 0,0 0,0"
             style="fill:#352836;fill-opacity:1;fill-rule:nonzero;stroke:none"
             id="path1873"
             inkscape:connector-curvature="0" /></g><g
           id="g1875"
           transform="translate(561.0141,190.946)"><path
             d="M 0,0 C 0,0 0.035,0.135 0.117,0.348 0.16,0.452 0.208,0.583 0.279,0.715 0.354,0.85 0.398,1.011 0.548,1.151 0.68,1.301 0.832,1.468 1.012,1.629 1.187,1.806 1.401,1.927 1.631,2.043 1.867,2.149 2.093,2.312 2.378,2.346 2.654,2.405 2.942,2.441 3.229,2.474 3.521,2.441 3.816,2.404 4.097,2.342 4.384,2.306 4.623,2.121 4.863,2.004 5.105,1.88 5.312,1.731 5.463,1.538 5.626,1.362 5.762,1.182 5.878,1.02 6.005,0.868 6.044,0.669 6.104,0.52 6.162,0.369 6.193,0.228 6.22,0.117 6.27,-0.109 6.277,-0.24 6.277,-0.24 c 0,0 -0.142,0.042 -0.354,0.119 C 5.819,-0.081 5.692,-0.038 5.568,0.022 5.432,0.069 5.311,0.156 5.152,0.196 4.992,0.236 4.828,0.276 4.675,0.332 4.528,0.405 4.36,0.427 4.194,0.444 4.028,0.454 3.885,0.542 3.716,0.524 3.551,0.518 3.393,0.538 3.231,0.561 3.064,0.539 2.899,0.52 2.729,0.525 2.557,0.546 2.39,0.462 2.215,0.455 2.04,0.432 1.858,0.425 1.709,0.374 1.552,0.335 1.384,0.313 1.221,0.288 1.062,0.275 0.894,0.193 0.749,0.159 0.608,0.111 0.471,0.084 0.362,0.059 0.139,0.013 0,0 0,0"
             style="fill:#352836;fill-opacity:1;fill-rule:nonzero;stroke:none"
             id="path1877"
             inkscape:connector-curvature="0" /></g><g
           id="g1879"
           transform="translate(547.4947,264.6418)"><path
             d="m 0,0 c 0,0 -4.892,-2.621 -3.386,-9.923 1.507,-7.301 -11.131,-5.222 -2.691,-17.48 8.439,-12.259 29.407,-16.082 41.866,-12.228 12.458,3.854 17.967,11.588 16.195,19.163 -1.771,7.574 1.773,10.216 -2.232,12.703 C 45.746,-5.278 0,0 0,0"
             style="fill:#438685;fill-opacity:1;fill-rule:nonzero;stroke:none"
             id="path1881"
             inkscape:connector-curvature="0" /></g><g
           id="g1883"><g
             id="g1885" /><g
             id="g1897"><g
               clip-path="url(#clipPath1889)"
               id="g1895"
               style="opacity:0.19999701"><g
                 transform="translate(548.7931,261.3873)"
                 id="g1893"><path
                   d="m 0,0 c 0,0 1.061,-18.886 20.416,-22.415 19.355,-3.529 27.743,16.292 27.743,16.292 z"
                   style="fill:#352836;fill-opacity:1;fill-rule:nonzero;stroke:none"
                   id="path1891"
                   inkscape:connector-curvature="0" /></g></g></g></g><g
           id="g1899"
           transform="translate(550.4862,294.089)"><path
             d="m 0,0 c 0,0 -5.751,-13.253 -2.023,-20.429 3.727,-7.176 8.982,17.908 8.982,17.908 z"
             style="fill:#ffdfc0;fill-opacity:1;fill-rule:nonzero;stroke:none"
             id="path1901"
             inkscape:connector-curvature="0" /></g><g
           id="g1903"><g
             id="g1905" /><g
             id="g1917"><g
               clip-path="url(#clipPath1909)"
               id="g1915"
               style="opacity:0.10000598"><g
                 transform="translate(550.4862,294.089)"
                 id="g1913"><path
                   d="m 0,0 c 0,0 -5.751,-13.253 -2.023,-20.429 3.727,-7.176 8.982,17.908 8.982,17.908 z"
                   style="fill:#352836;fill-opacity:1;fill-rule:nonzero;stroke:none"
                   id="path1911"
                   inkscape:connector-curvature="0" /></g></g></g></g><g
           id="g1919"
           transform="translate(579.0161,303.0161)"><path
             d="M 0,0 C 0,0 -28.672,3.391 -31.617,-29.18 -34.562,-61.75 9.047,-72.265 19.352,-44.74 29.657,-17.216 17.949,-3.798 0,0"
             style="fill:#ffae9e;fill-opacity:1;fill-rule:nonzero;stroke:none"
             id="path1921"
             inkscape:connector-curvature="0" /></g><g
           id="g1923"
           transform="translate(595.5984,289.336)"><path
             d="m 0,0 c 0,0 -15.103,-10.335 -35.623,-3.925 l 10.942,3.375 c 0,0 -11.209,-1.691 -23.4,5.522 0,0 3.224,14.493 22.141,19.824 0,0 -14.266,-3.644 -18.737,-9.187 0,0 15.053,18.268 34.377,11.236 C 9.025,19.814 9.61,6.875 9.61,6.875 c 0,0 7.356,-0.128 8.915,-10.495 1.558,-10.368 -9.327,-31.512 -19.251,-33.691 0,0 6.019,9.931 6.322,19.989 0,0 -1.503,-5.761 -5.621,-9.176 0,0 -4.084,9.967 0.025,26.498"
             style="fill:#ffdfc0;fill-opacity:1;fill-rule:nonzero;stroke:none"
             id="path1925"
             inkscape:connector-curvature="0" /></g><g
           id="g1927"><g
             id="g1929" /><g
             id="g1941"><g
               clip-path="url(#clipPath1933)"
               id="g1939"
               style="opacity:0.10000598"><g
                 transform="translate(614.123,285.7159)"
                 id="g1937"><path
                   d="m 0,0 c -1.558,10.368 -8.914,10.495 -8.914,10.495 0,0 -0.413,8.881 -11.545,15.927 2.845,-7.727 1.939,-16.754 -2.425,-23.96 -0.317,-0.524 -0.64,-1.04 -0.965,-1.554 3.398,1.399 5.324,2.712 5.324,2.712 -4.109,-16.531 -0.025,-26.498 -0.025,-26.498 4.119,3.415 5.621,9.176 5.621,9.176 C -13.232,-23.76 -19.251,-33.69 -19.251,-33.69 -9.327,-31.512 1.558,-10.368 0,0"
                   style="fill:#352836;fill-opacity:1;fill-rule:nonzero;stroke:none"
                   id="path1935"
                   inkscape:connector-curvature="0" /></g></g></g></g><g
           id="g1943"
           transform="translate(601.5029,273.8757)"><path
             d="m 0,0 c 0,0 -2.43,-9.706 -3.845,-13.296 0,0 6.648,-2.743 9.034,6.697 C 6.583,-1.086 0,0 0,0"
             style="fill:#ffae9e;fill-opacity:1;fill-rule:nonzero;stroke:none"
             id="path1945"
             inkscape:connector-curvature="0" /></g><g
           id="g1947"
           transform="translate(567.7839,277.2087)"><path
             d="m 0,0 c -0.008,-1.167 -0.137,-2.301 -0.292,-3.429 -0.164,-1.124 -0.384,-2.234 -0.625,-3.338 l -0.408,-1.644 c -0.13,-0.549 -0.308,-1.086 -0.46,-1.629 -0.317,-1.083 -0.676,-2.156 -1.086,-3.214 l -0.514,0.852 c 0.778,-0.233 1.545,-0.511 2.313,-0.788 0.766,-0.289 1.529,-0.586 2.279,-0.944 -0.831,-0.006 -1.649,0.051 -2.464,0.115 -0.813,0.077 -1.626,0.152 -2.429,0.272 l -0.635,0.096 0.121,0.757 c 0.179,1.12 0.41,2.227 0.682,3.323 0.143,0.546 0.259,1.099 0.424,1.639 l 0.475,1.625 c 0.348,1.075 0.718,2.144 1.143,3.199 C -1.042,-2.057 -0.581,-1.012 0,0"
             style="fill:#eb8579;fill-opacity:1;fill-rule:nonzero;stroke:none"
             id="path1949"
             inkscape:connector-curvature="0" /></g><g
           id="g1951"
           transform="translate(599.6499,262.7079)"><path
             d="M 0,0 C 0.542,0.338 1.077,0.738 1.31,1.21 1.357,1.329 1.398,1.439 1.402,1.551 1.419,1.604 1.395,1.661 1.394,1.715 1.396,1.767 1.376,1.822 1.352,1.876 1.328,1.983 1.256,2.092 1.197,2.2 1.129,2.307 1.029,2.409 0.951,2.514 L 0.791,2.727 0.882,2.958 C 1.288,3.99 1.754,4.983 2.408,5.903 2.569,6.134 2.75,6.355 2.949,6.566 3.149,6.778 3.368,6.984 3.674,7.13 3.829,7.197 4.018,7.26 4.227,7.212 4.43,7.153 4.572,7.01 4.645,6.871 4.796,6.589 4.813,6.306 4.826,6.03 4.698,6.273 4.569,6.525 4.398,6.681 4.213,6.846 4.109,6.791 3.943,6.67 3.619,6.386 3.349,5.91 3.094,5.468 2.6,4.55 2.129,3.584 1.684,2.627 L 1.615,3.071 C 1.82,2.77 2.038,2.457 2.101,2.039 2.121,1.939 2.133,1.838 2.12,1.73 2.109,1.625 2.116,1.52 2.076,1.421 2.025,1.216 1.928,1.037 1.81,0.884 1.311,0.294 0.64,0.086 0,0"
             style="fill:#eb8579;fill-opacity:1;fill-rule:nonzero;stroke:none"
             id="path1953"
             inkscape:connector-curvature="0" /></g><g
           id="g1955"
           transform="translate(563.0131,256.6892)"><path
             d="m 0,0 c 0,0 1.144,-0.223 2.785,-0.455 0.409,-0.048 0.852,-0.099 1.321,-0.154 0.465,-0.062 0.958,-0.073 1.46,-0.116 0.502,-0.053 1.023,-0.004 1.545,-0.043 0.52,0.036 1.055,0.007 1.575,0.091 0.523,0.049 1.051,0.08 1.552,0.205 0.252,0.055 0.506,0.096 0.758,0.134 0.243,0.069 0.484,0.136 0.721,0.203 0.482,0.118 0.933,0.274 1.358,0.446 0.217,0.08 0.428,0.158 0.632,0.233 0.196,0.094 0.385,0.186 0.567,0.274 0.358,0.189 0.72,0.326 1.015,0.49 0.282,0.181 0.544,0.326 0.759,0.451 0.433,0.246 0.7,0.38 0.7,0.38 0,0 -0.153,-0.241 -0.453,-0.652 C 16.142,1.283 15.958,1.03 15.728,0.754 15.493,0.484 15.186,0.223 14.853,-0.071 14.684,-0.217 14.507,-0.37 14.325,-0.527 14.121,-0.654 13.91,-0.786 13.694,-0.922 13.474,-1.056 13.248,-1.195 13.017,-1.337 12.782,-1.474 12.517,-1.554 12.259,-1.669 11.997,-1.775 11.731,-1.884 11.462,-1.993 11.185,-2.078 10.9,-2.15 10.612,-2.216 10.038,-2.378 9.443,-2.443 8.846,-2.516 8.249,-2.585 7.652,-2.536 7.066,-2.549 6.484,-2.502 5.91,-2.442 5.369,-2.336 4.279,-2.143 3.302,-1.814 2.498,-1.471 0.883,-0.789 0,0 0,0"
             style="fill:#eb8579;fill-opacity:1;fill-rule:nonzero;stroke:none"
             id="path1957"
             inkscape:connector-curvature="0" /></g><g
           id="g1959"
           transform="translate(560.9459,271.9888)"><path
             d="m 0,0 c 0,0 -0.004,0.291 -0.037,0.779 -0.032,0.486 -0.092,1.174 -0.245,1.936 -0.083,0.379 -0.192,0.777 -0.343,1.157 -0.07,0.195 -0.157,0.382 -0.269,0.553 -0.093,0.185 -0.213,0.343 -0.333,0.504 -0.1,0.177 -0.283,0.279 -0.411,0.429 -0.154,0.125 -0.338,0.216 -0.491,0.345 l -0.574,0.259 -0.643,0.184 -0.729,0.107 c -0.24,0.013 -0.371,-0.016 -0.565,0 C -4.835,6.22 -5.03,6.187 -5.221,6.155 -5.397,6.073 -5.599,6.047 -5.766,5.937 -5.936,5.837 -6.11,5.747 -6.267,5.615 -6.436,5.503 -6.593,5.372 -6.732,5.22 -7.021,4.935 -7.276,4.611 -7.502,4.296 -7.941,3.657 -8.266,3.048 -8.486,2.613 -8.707,2.177 -8.825,1.91 -8.825,1.91 c 0,0 -0.056,0.285 -0.062,0.794 -10e-4,0.506 0.039,1.242 0.313,2.104 0.136,0.431 0.314,0.904 0.621,1.36 0.277,0.469 0.684,0.935 1.211,1.309 0.25,0.204 0.567,0.328 0.864,0.491 0.316,0.116 0.644,0.214 0.99,0.278 0.35,0.027 0.769,0.068 1.078,0.043 l 0.411,-0.05 0.206,-0.026 0.103,-0.012 0.051,-0.007 0.112,-0.018 0.03,-0.009 0.944,-0.295 C -1.644,7.734 -1.348,7.557 -1.056,7.397 -0.496,6.995 -0.025,6.489 0.292,5.93 0.622,5.38 0.795,4.791 0.867,4.254 0.966,3.717 0.943,3.213 0.901,2.764 0.814,1.865 0.564,1.172 0.366,0.707 0.162,0.241 0,0 0,0"
             style="fill:#231824;fill-opacity:1;fill-rule:nonzero;stroke:none"
             id="path1961"
             inkscape:connector-curvature="0" /></g><g
           id="g1963"
           transform="translate(582.8428,268.4467)"><path
             d="m 0,0 c 0,0 -0.004,0.291 -0.037,0.779 -0.032,0.486 -0.092,1.174 -0.245,1.936 -0.083,0.379 -0.192,0.777 -0.343,1.157 -0.07,0.195 -0.157,0.382 -0.269,0.553 -0.094,0.185 -0.213,0.343 -0.333,0.504 -0.1,0.177 -0.283,0.28 -0.411,0.429 -0.155,0.125 -0.338,0.216 -0.491,0.345 l -0.574,0.259 -0.643,0.184 -0.729,0.107 c -0.24,0.013 -0.371,-0.016 -0.565,0 C -4.836,6.22 -5.03,6.187 -5.221,6.155 -5.397,6.073 -5.599,6.047 -5.766,5.937 -5.936,5.837 -6.11,5.747 -6.267,5.615 -6.436,5.503 -6.593,5.372 -6.732,5.22 -7.021,4.935 -7.276,4.61 -7.502,4.296 -7.941,3.657 -8.266,3.048 -8.486,2.613 -8.707,2.177 -8.825,1.91 -8.825,1.91 c 0,0 -0.056,0.285 -0.062,0.794 -10e-4,0.506 0.038,1.242 0.312,2.104 0.137,0.431 0.315,0.904 0.622,1.36 0.276,0.469 0.684,0.935 1.211,1.309 0.25,0.204 0.567,0.328 0.864,0.491 0.316,0.116 0.644,0.214 0.99,0.278 0.35,0.027 0.769,0.068 1.078,0.043 l 0.411,-0.05 0.206,-0.026 0.102,-0.012 0.052,-0.006 0.112,-0.019 0.03,-0.009 0.944,-0.295 C -1.645,7.734 -1.348,7.557 -1.056,7.397 -0.496,6.995 -0.025,6.489 0.291,5.93 0.622,5.38 0.795,4.791 0.867,4.254 0.966,3.717 0.943,3.213 0.9,2.764 0.814,1.865 0.564,1.172 0.366,0.707 0.162,0.241 0,0 0,0"
             style="fill:#231824;fill-opacity:1;fill-rule:nonzero;stroke:none"
             id="path1965"
             inkscape:connector-curvature="0" /></g><g
           id="g1967"
           transform="translate(552.2994,287.1008)"><path
             d="M 0,0 C 0,0 0.709,0.828 2.147,1.549 2.508,1.719 2.9,1.923 3.345,2.052 3.78,2.213 4.258,2.342 4.763,2.429 5.267,2.518 5.804,2.576 6.349,2.589 6.898,2.562 7.46,2.566 8.013,2.43 8.289,2.37 8.566,2.315 8.838,2.246 9.104,2.152 9.365,2.045 9.624,1.944 c 0.535,-0.167 0.974,-0.517 1.424,-0.782 0.468,-0.245 0.789,-0.661 1.144,-0.968 0.367,-0.301 0.597,-0.693 0.835,-1.021 0.23,-0.334 0.458,-0.621 0.574,-0.934 0.14,-0.295 0.242,-0.562 0.328,-0.777 0.166,-0.432 0.24,-0.682 0.24,-0.682 0,0 -0.224,0.16 -0.577,0.445 -0.174,0.144 -0.387,0.313 -0.609,0.518 -0.21,0.216 -0.528,0.378 -0.81,0.603 -0.302,0.205 -0.59,0.464 -0.954,0.647 -0.173,0.099 -0.352,0.201 -0.534,0.305 -0.178,0.109 -0.355,0.22 -0.56,0.292 -0.394,0.165 -0.78,0.368 -1.211,0.475 -0.21,0.066 -0.422,0.127 -0.63,0.204 L 7.625,0.397 C 7.193,0.522 6.734,0.514 6.292,0.584 5.844,0.593 5.395,0.644 4.957,0.62 4.52,0.59 4.088,0.6 3.678,0.548 3.266,0.517 2.876,0.459 2.507,0.422 1.047,0.214 0,0 0,0"
             style="fill:#231824;fill-opacity:1;fill-rule:nonzero;stroke:none"
             id="path1969"
             inkscape:connector-curvature="0" /></g><g
           id="g1971"
           transform="translate(573.8742,282.5926)"><path
             d="M 0,0 C 0,0 0.709,0.828 2.147,1.549 2.508,1.719 2.9,1.923 3.345,2.052 3.78,2.213 4.258,2.342 4.763,2.429 5.266,2.518 5.804,2.576 6.349,2.589 6.898,2.562 7.46,2.566 8.013,2.43 8.289,2.37 8.566,2.315 8.837,2.246 9.104,2.152 9.365,2.045 9.624,1.944 c 0.535,-0.167 0.974,-0.517 1.424,-0.782 0.468,-0.245 0.789,-0.661 1.144,-0.968 0.367,-0.301 0.597,-0.693 0.835,-1.021 0.229,-0.334 0.458,-0.621 0.574,-0.934 0.14,-0.295 0.242,-0.562 0.328,-0.776 0.166,-0.433 0.24,-0.683 0.24,-0.683 0,0 -0.224,0.16 -0.577,0.445 -0.174,0.144 -0.387,0.313 -0.609,0.518 -0.211,0.216 -0.528,0.378 -0.81,0.603 -0.302,0.205 -0.59,0.464 -0.954,0.647 -0.174,0.099 -0.352,0.201 -0.534,0.306 -0.178,0.108 -0.356,0.219 -0.56,0.291 -0.394,0.165 -0.78,0.368 -1.211,0.475 -0.21,0.066 -0.422,0.128 -0.63,0.204 L 7.625,0.397 C 7.193,0.522 6.734,0.514 6.292,0.584 5.844,0.593 5.395,0.644 4.957,0.62 4.52,0.59 4.088,0.6 3.678,0.548 3.266,0.517 2.876,0.459 2.507,0.422 1.047,0.214 0,0 0,0"
             style="fill:#231824;fill-opacity:1;fill-rule:nonzero;stroke:none"
             id="path1973"
             inkscape:connector-curvature="0" /></g><g
           id="g1975"><g
             id="g1977" /><g
             id="g1989"><g
               clip-path="url(#clipPath1981)"
               id="g1987"
               style="opacity:0.19999701"><g
                 transform="translate(448.9468,33.6967)"
                 id="g1985"><path
                   d="m 0,0 c 0,-6.248 -29.982,-11.313 -66.967,-11.313 -36.985,0 -66.968,5.065 -66.968,11.313 0,6.248 29.983,11.313 66.968,11.313 C -29.982,11.313 0,6.248 0,0"
                   style="fill:#621b12;fill-opacity:1;fill-rule:nonzero;stroke:none"
                   id="path1983"
                   inkscape:connector-curvature="0" /></g></g></g></g><g
           id="g1991"
           transform="translate(392.8883,51.5078)"><path
             d="m 0,0 -0.485,-11.636 c 0,0 -64.97,-18.425 -15.515,2.909 V 0 Z"
             style="fill:#352836;fill-opacity:1;fill-rule:nonzero;stroke:none"
             id="path1993"
             inkscape:connector-curvature="0" /></g><g
           id="g1995"
           transform="translate(384.0143,48.5987)"><path
             d="m 0,0 0.485,-11.637 c 0,0 64.97,-18.424 15.515,2.91 V 0 Z"
             style="fill:#453446;fill-opacity:1;fill-rule:nonzero;stroke:none"
             id="path1997"
             inkscape:connector-curvature="0" /></g><g
           id="g1999"
           transform="translate(346.6806,297.256)"><path
             d="m 0,0 c 0,0 -24.243,-39.641 -10.667,-81.985 13.576,-42.344 23.273,-64.867 23.273,-64.867 0,0 -18.424,-44.146 16.485,-101.805 H 56.243 V 5.406 Z"
             style="fill:#5997c0;fill-opacity:1;fill-rule:nonzero;stroke:none"
             id="path2001"
             inkscape:connector-curvature="0" /></g><g
           id="g2003"><g
             id="g2005" /><g
             id="g2017"><g
               clip-path="url(#clipPath2009)"
               id="g2015"
               style="opacity:0.19999701"><g
                 transform="translate(335.2616,268.4478)"
                 id="g2013"><path
                   d="m 0,0 c -3.729,-14.747 -5.501,-33.673 0.752,-53.177 13.576,-42.344 23.273,-64.867 23.273,-64.867 0,0 -18.424,-44.146 16.485,-101.805 H 67.662 V -47.358 C 43.687,-33.64 21.087,-17.874 0,0"
                   style="fill:#352836;fill-opacity:1;fill-rule:nonzero;stroke:none"
                   id="path2011"
                   inkscape:connector-curvature="0" /></g></g></g></g><g
           id="g2019"
           transform="translate(430.3092,292.8923)"><path
             d="m 0,0 c 0,0 24.243,-39.641 10.667,-81.985 -13.576,-42.344 -23.273,-64.867 -23.273,-64.867 0,0 18.424,-44.146 -16.485,-101.805 H -46.295 L -56.243,5.406 Z"
             style="fill:#5997c0;fill-opacity:1;fill-rule:nonzero;stroke:none"
             id="path2021"
             inkscape:connector-curvature="0" /></g><g
           id="g2023"
           transform="translate(350.7416,390.3053)"><path
             d="m 0,0 c 0,0 -12.682,-2.501 -18.041,-22.864 -5.359,-20.363 -21.435,-68.591 -10.181,-76.093 11.253,-7.502 106.101,-17.683 118.426,5.359 12.325,23.042 1.072,81.452 -14.468,92.169 C 60.196,9.288 31.795,-12.146 31.795,-12.146 Z"
             style="fill:#ffa855;fill-opacity:1;fill-rule:nonzero;stroke:none"
             id="path2025"
             inkscape:connector-curvature="0" /></g><g
           id="g2027"><g
             id="g2029" /><g
             id="g2041"><g
               clip-path="url(#clipPath2033)"
               id="g2039"
               style="opacity:0.19999701"><g
                 transform="translate(322.5193,291.3485)"
                 id="g2037"><path
                   d="m 0,0 c 1.121,-0.747 3.082,-1.521 5.697,-2.285 10.699,1.443 21.423,2.739 32.171,3.714 14.909,1.352 30.039,1.638 43.39,9.207 0.905,0.512 1.786,0.548 2.542,0.282 8.752,6.51 15.775,19.119 14.867,30.558 C 87.202,39.613 75.309,38.689 64.84,39.654 45.672,41.422 23.271,48.384 5.551,59.541 -0.881,36.662 -8.804,5.869 0,0"
                   style="fill:#352836;fill-opacity:1;fill-rule:nonzero;stroke:none"
                   id="path2035"
                   inkscape:connector-curvature="0" /></g></g></g></g><g
           id="g2043"
           transform="translate(373.2481,419.9566)"><path
             d="m 0,0 2.143,-22.864 c 0,0 -19.648,-4.644 -24.649,-6.787 0,0 8.937,-16.766 30.365,-17.505 31.081,-1.072 37.868,19.291 37.868,19.291 0,0 -12.146,2.143 -20.005,3.93 V 1.429 Z"
             style="fill:#863f38;fill-opacity:1;fill-rule:nonzero;stroke:none"
             id="path2045"
             inkscape:connector-curvature="0" /></g><g
           id="g2047"
           transform="translate(354.6713,437.1043)"><path
             d="M 0,0 C 0,0 0.828,40.973 34.296,37.868 68.948,34.653 61.803,-14.29 42.512,-28.937 23.665,-43.247 0.357,-26.436 0,0"
             style="fill:#aa534f;fill-opacity:1;fill-rule:nonzero;stroke:none"
             id="path2049"
             inkscape:connector-curvature="0" /></g><g
           id="g2051"
           transform="translate(396.8262,460.6825)"><path
             d="m 0,0 c 0,0 -7.145,-11.789 -18.934,-15.719 -15.311,-5.104 -21.792,-22.506 -12.503,-33.581 0,0 4.451,-4.554 10.524,-7.412 0,0 2.336,-12.236 -8.738,-13.665 -11.075,-1.429 -11.432,2.858 -24.293,-3.93 0,0 -16.433,11.789 -15.004,28.222 1.429,16.434 15.718,16.434 22.863,44.299 7.145,27.865 34.296,35.01 46.799,16.433 C 13.218,-3.93 0,0 0,0"
             style="fill:#352836;fill-opacity:1;fill-rule:nonzero;stroke:none"
             id="path2053"
             inkscape:connector-curvature="0" /></g><g
           id="g2055"
           transform="translate(396.1117,466.0412)"><path
             d="m 0,0 c 0,0 -2.416,-13.029 5.359,-26.079 10.003,-16.79 -17.863,-33.938 -6.074,-50.014 11.79,-16.076 18.934,3.215 32.867,-2.501 0,0 17.148,13.933 13.218,31.08 C 41.44,-30.366 23.166,-10.808 20.363,2.858 17.505,16.79 -6.073,28.222 -16.79,10.717 -27.508,-6.788 0,0 0,0"
             style="fill:#352836;fill-opacity:1;fill-rule:nonzero;stroke:none"
             id="path2057"
             inkscape:connector-curvature="0" /></g><g
           id="g2059"
           transform="translate(413.9022,438.973)"><path
             d="m 0,0 c -0.319,-3.617 -1.451,-7.047 -3.014,-10.316 -0.228,-1.529 -0.505,-2.955 -0.844,-4.056 0,0 6.636,0.087 7.859,5.716 C 5.175,-3.257 2.189,-0.952 0,0"
             style="fill:#aa534f;fill-opacity:1;fill-rule:nonzero;stroke:none"
             id="path2061"
             inkscape:connector-curvature="0" /></g><g
           id="g2063"
           transform="translate(396.922,461.6361)"><path
             d="m 0,0 c 0,0 -0.113,-0.238 -0.324,-0.685 -0.223,-0.44 -0.539,-1.097 -1.011,-1.892 -0.459,-0.803 -1.052,-1.759 -1.789,-2.821 -0.739,-1.059 -1.612,-2.235 -2.666,-3.436 -1.042,-1.211 -2.246,-2.469 -3.64,-3.679 -0.683,-0.619 -1.446,-1.188 -2.207,-1.793 -0.807,-0.544 -1.598,-1.155 -2.496,-1.634 -0.441,-0.253 -0.886,-0.509 -1.334,-0.766 -0.468,-0.221 -0.94,-0.443 -1.415,-0.667 -0.907,-0.432 -1.824,-0.87 -2.749,-1.311 -0.23,-0.113 -0.477,-0.214 -0.693,-0.337 l -0.622,-0.389 -1.249,-0.774 c -0.831,-0.527 -1.591,-1.216 -2.393,-1.813 -0.731,-0.686 -1.477,-1.366 -2.163,-2.092 l -0.961,-1.149 c -0.329,-0.375 -0.642,-0.761 -0.898,-1.185 -0.541,-0.828 -1.126,-1.621 -1.542,-2.499 -0.227,-0.429 -0.453,-0.855 -0.678,-1.278 -0.175,-0.445 -0.348,-0.887 -0.52,-1.326 -0.703,-1.752 -1.089,-3.547 -1.317,-5.265 -0.128,-0.859 -0.07,-1.706 -0.127,-2.524 0.004,-0.817 0.125,-1.602 0.175,-2.364 0.264,-1.496 0.571,-2.876 1.056,-4.032 0.107,-0.295 0.211,-0.581 0.312,-0.857 0.125,-0.264 0.266,-0.509 0.388,-0.752 0.252,-0.486 0.484,-0.932 0.693,-1.335 0.477,-0.771 0.919,-1.341 1.192,-1.752 0.283,-0.406 0.434,-0.623 0.434,-0.623 0,0 -0.182,0.19 -0.522,0.546 -0.327,0.368 -0.877,0.86 -1.455,1.588 -0.266,0.383 -0.561,0.807 -0.882,1.268 -0.159,0.234 -0.336,0.472 -0.492,0.733 -0.135,0.274 -0.274,0.558 -0.417,0.851 -0.636,1.152 -1.119,2.564 -1.517,4.142 -0.124,0.801 -0.32,1.636 -0.397,2.512 -0.015,0.877 -0.112,1.794 -0.036,2.727 0.131,1.866 0.426,3.851 1.136,5.777 0.171,0.484 0.344,0.972 0.518,1.464 0.226,0.469 0.454,0.941 0.684,1.417 0.416,0.977 1.025,1.858 1.613,2.762 0.277,0.465 0.611,0.89 0.963,1.304 l 1.033,1.263 c 0.738,0.8 1.537,1.554 2.332,2.304 0.884,0.65 1.701,1.368 2.64,1.953 l 1.424,0.854 0.709,0.422 c 0.237,0.129 0.472,0.222 0.707,0.334 0.47,0.215 0.938,0.428 1.404,0.641 0.478,0.208 0.953,0.415 1.426,0.621 0.449,0.192 0.895,0.382 1.338,0.572 0.428,0.226 0.852,0.45 1.273,0.672 0.861,0.412 1.617,0.981 2.418,1.439 0.753,0.531 1.512,1.028 2.2,1.581 0.692,0.548 1.365,1.086 1.982,1.648 0.64,0.537 1.22,1.099 1.779,1.639 2.227,2.172 3.877,4.205 4.995,5.655 C -0.571,-0.888 0,0 0,0"
             style="fill:#352836;fill-opacity:1;fill-rule:nonzero;stroke:none"
             id="path2065"
             inkscape:connector-curvature="0" /></g><g
           id="g2067"
           transform="translate(366.4022,436.6027)"><path
             d="m 0,0 c 0,0 0.076,-0.284 0.208,-0.78 0.139,-0.485 0.35,-1.168 0.672,-1.905 0.166,-0.365 0.365,-0.744 0.601,-1.096 0.113,-0.182 0.242,-0.351 0.393,-0.5 0.134,-0.167 0.294,-0.298 0.451,-0.432 0.144,-0.154 0.348,-0.219 0.508,-0.345 0.182,-0.095 0.387,-0.15 0.57,-0.245 0.215,-0.04 0.424,-0.087 0.638,-0.137 l 0.691,-0.046 0.76,0.052 c 0.245,0.04 0.372,0.098 0.572,0.124 0.19,0.077 0.378,0.154 0.564,0.23 0.159,0.124 0.353,0.198 0.501,0.341 0.151,0.137 0.312,0.262 0.441,0.431 0.146,0.15 0.277,0.317 0.384,0.501 0.23,0.352 0.417,0.736 0.576,1.103 0.305,0.743 0.5,1.431 0.627,1.919 0.121,0.5 0.19,0.785 0.19,0.785 0,0 0.122,-0.276 0.237,-0.789 C 9.695,-1.301 9.816,-2.055 9.728,-2.987 9.685,-3.452 9.608,-3.97 9.397,-4.498 9.22,-5.034 8.909,-5.593 8.463,-6.093 8.259,-6.358 7.96,-6.55 7.694,-6.778 7.398,-6.962 7.087,-7.131 6.751,-7.272 6.403,-7.376 5.988,-7.509 5.67,-7.552 L 5.243,-7.591 5.03,-7.61 4.923,-7.62 4.869,-7.625 4.752,-7.631 4.72,-7.628 3.7,-7.536 c -0.342,0.072 -0.681,0.185 -1.012,0.284 -0.65,0.287 -1.252,0.679 -1.689,1.184 -0.215,0.253 -0.43,0.496 -0.564,0.775 -0.163,0.265 -0.285,0.533 -0.38,0.799 -0.219,0.522 -0.306,1.037 -0.361,1.5 -0.109,0.929 -0.008,1.685 0.09,2.199 C -0.115,-0.279 0,0 0,0"
             style="fill:#231824;fill-opacity:1;fill-rule:nonzero;stroke:none"
             id="path2069"
             inkscape:connector-curvature="0" /></g><g
           id="g2071"
           transform="translate(388.8676,436.6027)"><path
             d="m 0,0 c 0,0 0.076,-0.284 0.208,-0.78 0.139,-0.485 0.35,-1.168 0.672,-1.905 0.166,-0.365 0.365,-0.744 0.601,-1.096 0.113,-0.182 0.242,-0.351 0.393,-0.5 0.134,-0.167 0.294,-0.298 0.451,-0.432 0.144,-0.154 0.348,-0.219 0.508,-0.345 0.182,-0.095 0.387,-0.15 0.57,-0.245 0.215,-0.04 0.424,-0.087 0.638,-0.137 l 0.691,-0.046 0.76,0.052 c 0.246,0.04 0.372,0.098 0.572,0.124 0.19,0.077 0.378,0.154 0.564,0.23 0.159,0.124 0.353,0.198 0.501,0.341 0.151,0.137 0.312,0.262 0.442,0.431 0.146,0.15 0.276,0.317 0.383,0.501 0.23,0.352 0.417,0.736 0.577,1.103 0.304,0.743 0.499,1.431 0.626,1.919 C 9.278,-0.285 9.347,0 9.347,0 9.347,0 9.47,-0.276 9.584,-0.789 9.695,-1.301 9.816,-2.055 9.728,-2.987 9.685,-3.452 9.608,-3.97 9.397,-4.498 9.22,-5.034 8.909,-5.593 8.463,-6.093 8.259,-6.358 7.96,-6.55 7.694,-6.778 7.398,-6.962 7.087,-7.131 6.751,-7.272 6.403,-7.376 5.988,-7.509 5.67,-7.552 L 5.243,-7.591 5.03,-7.61 4.923,-7.62 4.869,-7.625 4.752,-7.631 4.72,-7.628 3.7,-7.536 c -0.342,0.072 -0.681,0.185 -1.012,0.284 -0.65,0.287 -1.252,0.679 -1.689,1.184 -0.215,0.253 -0.43,0.496 -0.564,0.775 -0.163,0.265 -0.285,0.533 -0.38,0.799 -0.218,0.522 -0.306,1.037 -0.361,1.5 -0.109,0.929 -0.008,1.685 0.09,2.199 C -0.115,-0.279 0,0 0,0"
             style="fill:#231824;fill-opacity:1;fill-rule:nonzero;stroke:none"
             id="path2073"
             inkscape:connector-curvature="0" /></g><g
           id="g2075"
           transform="translate(362.6306,443.6539)"><path
             d="m 0,0 c 0,0 0.207,0.231 0.629,0.566 0.416,0.341 1.046,0.782 1.86,1.219 0.412,0.203 0.853,0.454 1.355,0.626 0.492,0.203 1.022,0.396 1.59,0.537 0.559,0.177 1.166,0.251 1.776,0.358 0.617,0.06 1.25,0.112 1.886,0.097 0.637,-0.051 1.276,-0.047 1.893,-0.209 0.31,-0.06 0.616,-0.126 0.916,-0.197 0.297,-0.084 0.583,-0.2 0.864,-0.306 0.279,-0.112 0.558,-0.206 0.818,-0.328 0.25,-0.147 0.493,-0.29 0.73,-0.429 0.233,-0.141 0.459,-0.277 0.678,-0.409 0.207,-0.15 0.387,-0.327 0.567,-0.478 0.356,-0.311 0.68,-0.59 0.929,-0.875 0.241,-0.295 0.432,-0.567 0.589,-0.785 0.313,-0.439 0.466,-0.699 0.466,-0.699 0,0 -0.29,0.133 -0.751,0.382 -0.23,0.126 -0.509,0.272 -0.808,0.455 -0.316,0.16 -0.699,0.292 -1.078,0.479 C 14.534,0.199 14.097,0.337 13.642,0.483 13.418,0.558 13.189,0.635 12.953,0.715 12.711,0.766 12.464,0.819 12.212,0.873 11.96,0.921 11.715,1 11.456,1.043 11.193,1.07 10.93,1.102 10.665,1.141 10.141,1.238 9.589,1.224 9.047,1.261 8.501,1.286 7.949,1.244 7.406,1.239 6.863,1.174 6.321,1.176 5.8,1.088 5.276,1.026 4.764,0.969 4.281,0.878 3.794,0.805 3.339,0.702 2.906,0.633 2.056,0.451 1.325,0.307 0.815,0.185 0.296,0.067 0,0 0,0"
             style="fill:#231824;fill-opacity:1;fill-rule:nonzero;stroke:none"
             id="path2077"
             inkscape:connector-curvature="0" /></g><g
           id="g2079"
           transform="translate(387.0639,443.6539)"><path
             d="m 0,0 c 0,0 0.207,0.231 0.629,0.566 0.416,0.341 1.046,0.782 1.86,1.219 0.412,0.203 0.853,0.454 1.355,0.626 0.492,0.203 1.022,0.396 1.59,0.537 0.559,0.177 1.166,0.251 1.776,0.358 0.617,0.06 1.25,0.112 1.886,0.097 0.636,-0.051 1.276,-0.047 1.893,-0.209 0.31,-0.06 0.616,-0.126 0.916,-0.197 0.297,-0.084 0.583,-0.2 0.864,-0.306 0.279,-0.112 0.558,-0.206 0.818,-0.328 0.249,-0.147 0.493,-0.29 0.73,-0.429 0.233,-0.141 0.459,-0.277 0.678,-0.409 0.207,-0.15 0.387,-0.327 0.567,-0.478 0.356,-0.311 0.679,-0.59 0.929,-0.875 0.241,-0.295 0.432,-0.567 0.589,-0.785 0.313,-0.439 0.466,-0.699 0.466,-0.699 0,0 -0.29,0.133 -0.751,0.382 -0.23,0.126 -0.509,0.272 -0.808,0.455 -0.316,0.16 -0.699,0.292 -1.078,0.479 C 14.534,0.199 14.097,0.337 13.642,0.483 13.418,0.558 13.188,0.635 12.953,0.715 12.711,0.766 12.464,0.819 12.212,0.873 11.96,0.921 11.714,1 11.456,1.043 11.193,1.07 10.93,1.102 10.665,1.141 10.141,1.238 9.589,1.224 9.046,1.261 8.501,1.286 7.949,1.244 7.406,1.239 6.863,1.174 6.321,1.176 5.799,1.088 5.276,1.026 4.764,0.969 4.281,0.878 3.794,0.805 3.339,0.702 2.906,0.633 2.056,0.451 1.325,0.307 0.815,0.185 0.296,0.067 0,0 0,0"
             style="fill:#231824;fill-opacity:1;fill-rule:nonzero;stroke:none"
             id="path2081"
             inkscape:connector-curvature="0" /></g><g
           id="g2083"
           transform="translate(380.0127,439.7184)"><path
             d="m 0,0 c 0.15,-1.394 0.14,-2.763 0.109,-4.128 -0.065,-1.361 -0.151,-2.718 -0.317,-4.063 -0.156,-1.347 -0.362,-2.686 -0.612,-4.018 -0.125,-0.667 -0.262,-1.331 -0.414,-1.993 -0.148,-0.663 -0.331,-1.32 -0.495,-1.98 l -0.701,0.85 c 0.679,-0.123 1.36,-0.223 2.038,-0.38 0.678,-0.141 1.356,-0.311 2.032,-0.522 -0.691,-0.157 -1.38,-0.272 -2.068,-0.358 -0.688,-0.103 -1.374,-0.148 -2.061,-0.217 l -0.757,-0.075 0.056,0.926 c 0.041,0.679 0.063,1.361 0.119,2.037 0.053,0.677 0.122,1.352 0.202,2.025 0.159,1.346 0.364,2.686 0.618,4.017 0.243,1.333 0.567,2.655 0.912,3.972 C -0.96,-2.594 -0.561,-1.285 0,0"
             style="fill:#863f38;fill-opacity:1;fill-rule:nonzero;stroke:none"
             id="path2085"
             inkscape:connector-curvature="0" /></g><g
           id="g2087"
           transform="translate(373.6174,417.9088)"><path
             d="m 0,0 c 0,0 0.283,-0.076 0.777,-0.209 0.491,-0.122 1.18,-0.291 1.999,-0.44 0.405,-0.089 0.856,-0.128 1.313,-0.217 0.467,-0.05 0.953,-0.112 1.455,-0.144 0.503,-0.032 1.017,-0.07 1.542,-0.06 0.523,-0.024 1.053,0.02 1.582,0.047 0.531,0.004 1.052,0.124 1.576,0.156 0.519,0.091 1.029,0.181 1.523,0.267 0.495,0.118 0.974,0.232 1.428,0.34 0.462,0.098 0.874,0.273 1.282,0.377 0.396,0.131 0.786,0.208 1.103,0.341 0.32,0.125 0.614,0.216 0.856,0.296 0.485,0.157 0.782,0.23 0.782,0.23 0,0 -0.189,-0.226 -0.555,-0.591 -0.184,-0.182 -0.406,-0.408 -0.678,-0.648 -0.259,-0.261 -0.597,-0.485 -0.968,-0.734 -0.375,-0.239 -0.76,-0.557 -1.234,-0.759 -0.465,-0.219 -0.952,-0.48 -1.484,-0.677 -0.541,-0.166 -1.1,-0.363 -1.686,-0.488 -0.592,-0.094 -1.192,-0.228 -1.803,-0.249 -0.611,-0.02 -1.222,-0.057 -1.821,0.018 -0.6,0.029 -1.182,0.14 -1.738,0.262 -0.558,0.109 -1.076,0.309 -1.565,0.473 -0.483,0.19 -0.932,0.381 -1.324,0.607 -0.799,0.41 -1.393,0.88 -1.786,1.219 C 0.183,-0.239 0,0 0,0"
             style="fill:#863f38;fill-opacity:1;fill-rule:nonzero;stroke:none"
             id="path2089"
             inkscape:connector-curvature="0" /></g><g
           id="g2091"
           transform="translate(409.7288,182.3616)"><path
             d="m 0,0 c -0.525,0 -1.053,0.01 -1.589,0.029 -9.421,0.35 -16.959,4.181 -21.801,11.078 -5.729,8.161 -6.96,19.877 -3.29,31.34 5.434,16.986 3.104,39.534 3.081,39.76 -0.188,1.765 1.088,3.35 2.853,3.54 1.775,0.193 3.349,-1.086 3.54,-2.853 0.104,-0.975 2.505,-24.106 -3.35,-42.407 -3.06,-9.56 -2.151,-19.161 2.429,-25.686 3.642,-5.189 9.442,-8.073 16.777,-8.345 7.921,-0.298 14.2,1.992 18.182,6.606 5.003,5.796 6.476,15.169 4.259,27.105 -3.018,16.252 2.565,24.139 8.796,26.101 5.208,1.641 10.81,-0.767 13.01,-5.608 0.734,-1.616 0.021,-3.521 -1.598,-4.256 -1.62,-0.737 -3.522,-0.021 -4.255,1.597 -0.858,1.884 -3.1,2.81 -5.225,2.133 C 28.378,59.052 25.159,53.478 27.413,41.339 30,27.417 28.024,16.187 21.701,8.861 16.683,3.046 9.202,0 0,0"
             style="fill:#704f5c;fill-opacity:1;fill-rule:nonzero;stroke:none"
             id="path2093"
             inkscape:connector-curvature="0" /></g><g
           id="g2095"
           transform="translate(380.9726,212.1119)"><path
             d="m 0,0 c 2.345,1.58 4.643,3.224 6.872,4.967 0.297,1.91 0.71,3.838 1.329,5.77 5.855,18.301 3.454,41.431 3.349,42.407 -0.191,1.767 -1.765,3.045 -3.54,2.853 C 6.246,55.806 4.969,54.222 5.157,52.457 5.18,52.231 7.51,29.683 2.076,12.696 0.711,8.434 0.03,4.137 0,0"
             style="fill:#624452;fill-opacity:1;fill-rule:nonzero;stroke:none"
             id="path2097"
             inkscape:connector-curvature="0" /></g><g
           id="g2099"
           transform="translate(364.3169,235.9756)"><path
             d="m 0,0 c 0,0 -0.715,-40.011 5.001,-40.011 5.716,0 7.86,35.367 7.86,35.367 z"
             style="fill:#624452;fill-opacity:1;fill-rule:nonzero;stroke:none"
             id="path2101"
             inkscape:connector-curvature="0" /></g><g
           id="g2103"
           transform="translate(410.0157,235.9756)"><path
             d="m 0,0 c 0,0 0.715,-40.011 -5.001,-40.011 -5.716,0 -7.86,35.367 -7.86,35.367 z"
             style="fill:#624452;fill-opacity:1;fill-rule:nonzero;stroke:none"
             id="path2105"
             inkscape:connector-curvature="0" /></g><g
           id="g2107"
           transform="translate(368.068,314.748)"><path
             d="m 0,0 c 0,0 -23.31,-63.768 -7.77,-77.969 15.54,-14.2 22.774,-2.143 27.597,-3.751 4.823,-1.607 15.004,-8.038 25.722,-1.607 10.717,6.43 1.607,78.236 -7.77,89.222 C 28.401,16.88 0,0 0,0"
             style="fill:#7f5e6a;fill-opacity:1;fill-rule:nonzero;stroke:none"
             id="path2109"
             inkscape:connector-curvature="0" /></g><g
           id="g2111"
           transform="translate(368.068,314.748)"><path
             d="m 0,0 c 0,0 -23.31,-63.768 -7.77,-77.969 15.54,-14.2 22.774,-2.143 27.597,-3.751 4.823,-1.607 15.004,-8.038 25.722,-1.607 10.717,6.43 1.607,78.236 -7.77,89.222 C 28.401,16.88 0,0 0,0"
             style="fill:#704f5c;fill-opacity:1;fill-rule:nonzero;stroke:none"
             id="path2113"
             inkscape:connector-curvature="0" /></g><g
           id="g2115"
           transform="translate(399.0956,304.3191)"><path
             d="m 0,0 c 0,0 27.798,3.131 24.939,-2.724 0,0 3.54,-1.906 0.544,-3.268 0,0 3.751,-1.388 0,-2.996 0,0 2.86,-1.906 -0.833,-3.873 -3.813,-2.031 -26.793,-3.751 -26.793,-3.751 z"
             style="fill:#aa534f;fill-opacity:1;fill-rule:nonzero;stroke:none"
             id="path2117"
             inkscape:connector-curvature="0" /></g><g
           id="g2119"
           transform="translate(334.3084,371.1927)"><path
             d="m 0,0 c 0,0 -22.506,-70.199 -15.004,-82.523 7.502,-12.325 65.911,-10.182 88.954,-1.608 0,0 3.751,10.717 -1.072,20.363 0,0 -54.123,2.143 -55.73,3.215 -1.608,1.072 3.215,30.544 3.215,30.544 z"
             style="fill:#ffa855;fill-opacity:1;fill-rule:nonzero;stroke:none"
             id="path2121"
             inkscape:connector-curvature="0" /></g><g
           id="g2123"><g
             id="g2125" /><g
             id="g2137"><g
               clip-path="url(#clipPath2129)"
               id="g2135"
               style="opacity:0.19999701"><g
                 transform="translate(407.1863,307.4245)"
                 id="g2133"><path
                   d="m 0,0 c 0,0 -3.669,0.145 -9.116,0.379 1.734,-6.242 2.37,-12.681 2.395,-19.326 0.004,-1.239 0.021,-2.486 0.042,-3.737 2.859,0.71 5.491,1.48 7.751,2.321 0,0 3.751,10.717 -1.072,20.363"
                   style="fill:#352836;fill-opacity:1;fill-rule:nonzero;stroke:none"
                   id="path2131"
                   inkscape:connector-curvature="0" /></g></g></g></g><g
           id="g2139"><g
             id="g2141" /><g
             id="g2153"><g
               clip-path="url(#clipPath2145)"
               id="g2151"
               style="opacity:0.19999701"><g
                 transform="translate(365.6356,309.3881)"
                 id="g2149"><path
                   d="m 0,0 c -1.982,-9.672 -3.142,-19.459 -3.606,-29.292 3.36,0.08 6.751,0.232 10.123,0.471 0.44,9.518 1.51,18.951 3.9,28.256 C 6.783,-0.381 3.233,-0.19 0,0"
                   style="fill:#352836;fill-opacity:1;fill-rule:nonzero;stroke:none"
                   id="path2147"
                   inkscape:connector-curvature="0" /></g></g></g></g><g
           id="g2155"
           transform="translate(361.3697,320.1067)"><path
             d="M 0,0 C 0,0 -3.483,0 -5.091,-10.181 -6.698,-20.363 -7.77,-63.232 -1.876,-64.036 4.019,-64.84 5.091,-20.363 10.449,-12.861 15.808,-5.359 10.717,1.608 0,0"
             style="fill:#7f5e6a;fill-opacity:1;fill-rule:nonzero;stroke:none"
             id="path2157"
             inkscape:connector-curvature="0" /></g><g
           id="g2159"
           transform="translate(410.7505,320.1067)"><path
             d="M 0,0 C 0,0 3.483,0 5.091,-10.181 6.698,-20.363 7.77,-63.232 1.876,-64.036 -4.019,-64.84 -5.091,-20.363 -10.449,-12.861 -15.808,-5.359 -10.717,1.608 0,0"
             style="fill:#7f5e6a;fill-opacity:1;fill-rule:nonzero;stroke:none"
             id="path2161"
             inkscape:connector-curvature="0" /></g><g
           id="g2163"
           transform="translate(362.4414,344.2207)"><path
             d="M 0,0 C 0,0 -2.947,21.167 -0.804,20.899 1.34,20.631 16.88,9.378 16.88,9.378 Z"
             style="fill:#704f5c;fill-opacity:1;fill-rule:nonzero;stroke:none"
             id="path2165"
             inkscape:connector-curvature="0" /></g><g
           id="g2167"
           transform="translate(410.4241,344.2207)"><path
             d="M 0,0 C 0,0 2.947,21.167 0.804,20.899 -1.34,20.631 -16.88,9.378 -16.88,9.378 Z"
             style="fill:#704f5c;fill-opacity:1;fill-rule:nonzero;stroke:none"
             id="path2169"
             inkscape:connector-curvature="0" /></g><g
           id="g2171"
           transform="translate(418.7818,331.1585)"><path
             d="m 0,0 c -0.804,7.588 -9.914,17.802 -9.914,17.802 -9.871,8.3 -17.929,8.79 -22.409,8.103 -4.481,0.687 -12.538,0.197 -22.41,-8.103 0,0 -9.109,-10.214 -9.913,-17.802 l 6.162,-0.876 -4.287,-0.875 c 0,0 1.362,-16.662 28.13,-18.583 0.429,-0.043 0.867,-0.079 1.327,-0.094 0.005,0 0.011,-10e-4 0.016,-10e-4 0.344,-0.018 0.646,0.004 0.975,10e-4 0.329,0.003 0.63,-0.019 0.975,-10e-4 0.005,0 0.01,10e-4 0.016,10e-4 0.46,0.015 0.897,0.051 1.326,0.094 26.769,1.921 28.13,18.583 28.13,18.583 l -4.287,0.875 z"
             style="fill:#7f5e6a;fill-opacity:1;fill-rule:nonzero;stroke:none"
             id="path2173"
             inkscape:connector-curvature="0" /></g><g
           id="g2175"
           transform="translate(402.5421,337.0758)"><path
             d="m 0,0 c 0,-1.776 -1.439,-3.215 -3.215,-3.215 -1.776,0 -3.215,1.439 -3.215,3.215 0,1.776 1.439,3.215 3.215,3.215 C -1.439,3.215 0,1.776 0,0"
             style="fill:#231824;fill-opacity:1;fill-rule:nonzero;stroke:none"
             id="path2177"
             inkscape:connector-curvature="0" /></g><g
           id="g2179"
           transform="translate(373.9625,337.0758)"><path
             d="m 0,0 c 0,-1.776 -1.439,-3.215 -3.215,-3.215 -1.776,0 -3.215,1.439 -3.215,3.215 0,1.776 1.439,3.215 3.215,3.215 C -1.439,3.215 0,1.776 0,0"
             style="fill:#231824;fill-opacity:1;fill-rule:nonzero;stroke:none"
             id="path2181"
             inkscape:connector-curvature="0" /></g><g
           id="g2183"
           transform="translate(381.4647,332.4316)"><path
             d="M 0,0 3.572,-5.359 6.788,0.357 Z"
             style="fill:#231824;fill-opacity:1;fill-rule:nonzero;stroke:none"
             id="path2185"
             inkscape:connector-curvature="0" /></g><g
           id="g2187"
           transform="translate(384.9442,326.7778)"><path
             d="m 0,0 c 0,0 -2.129,-4.85 -5.442,-3.076 0,0 0.947,-5.442 5.324,-5.797 4.377,-0.355 5.442,5.087 5.442,5.087 0,0 -3.904,-0.71 -5.324,3.786"
             style="fill:#ff6a59;fill-opacity:1;fill-rule:nonzero;stroke:none"
             id="path2189"
             inkscape:connector-curvature="0" /></g><g
           id="g2191"><g
             id="g2193" /><g
             id="g2205"><g
               clip-path="url(#clipPath2197)"
               id="g2203"
               style="opacity:0.19999701"><g
                 transform="translate(273.3947,33.3125)"
                 id="g2201"><path
                   d="m 0,0 c 0,-6.036 -28.964,-10.929 -64.693,-10.929 -35.729,0 -64.693,4.893 -64.693,10.929 0,6.036 28.964,10.929 64.693,10.929 C -28.964,10.929 0,6.036 0,0"
                   style="fill:#352836;fill-opacity:1;fill-rule:nonzero;stroke:none"
                   id="path2199"
                   inkscape:connector-curvature="0" /></g></g></g></g><g
           id="g2207"
           transform="translate(226.5434,44.7592)"><path
             d="M 0,0 C 0,0 11.731,-20.116 17.496,-18.469 23.26,-16.822 12.554,3.766 12.554,3.766 Z"
             style="fill:#438685;fill-opacity:1;fill-rule:nonzero;stroke:none"
             id="path2209"
             inkscape:connector-curvature="0" /></g><g
           id="g2211"
           transform="translate(205.3143,44.7725)"><path
             d="m 0,0 2.145,-8.805 c 0,0 -85.862,-24.942 -15.399,7.332 z"
             style="fill:#438685;fill-opacity:1;fill-rule:nonzero;stroke:none"
             id="path2213"
             inkscape:connector-curvature="0" /></g><g
           id="g2215"
           transform="translate(211.9413,303.9618)"><path
             d="m 0,0 c 0,0 29.453,-25.035 24.299,-67.743 -5.154,-42.707 -33.871,-73.633 -33.871,-73.633 0,0 16.935,-15.463 25.771,-41.971 8.836,-26.508 13.13,-72.089 13.13,-72.089 l -14.727,-4.418 -30.065,58.099 8.836,-57.434 -13.254,-1.473 c 0,0 -55.961,96.46 -58.907,158.312 -2.945,61.852 18.409,86.887 44.18,107.504 C -8.836,25.772 0,0 0,0"
             style="fill:#352836;fill-opacity:1;fill-rule:nonzero;stroke:none"
             id="path2217"
             inkscape:connector-curvature="0" /></g><g
           id="g2219"
           transform="translate(223.469,290.2328)"><path
             d="m 0,0 c -5.903,8.947 -11.528,13.729 -11.528,13.729 0,0 -8.836,25.772 -34.607,5.154 C -52.636,13.683 -58.854,8.198 -64.473,1.915 -56.106,-0.319 -29.543,-6.188 0,0"
             style="fill:#231824;fill-opacity:1;fill-rule:nonzero;stroke:none"
             id="path2221"
             inkscape:connector-curvature="0" /></g><g
           id="g2223"
           transform="translate(166.8853,165.4159)" /><g
           id="g2227"
           transform="translate(193.1648,382.7494)"><path
             d="m 0,0 c 0,0 0.44,-9.155 -1.657,-9.388 -2.096,-0.233 -17.698,3.765 -16.999,-2.292 0.699,-6.057 44.264,-20.967 52.185,-18.638 7.921,2.33 0.932,9.086 -5.824,13.513 -6.756,4.426 -7.222,10.017 -3.262,23.297 C 28.404,19.771 0,0 0,0"
             style="fill:#ff988d;fill-opacity:1;fill-rule:nonzero;stroke:none"
             id="path2229"
             inkscape:connector-curvature="0" /></g><g
           id="g2231"
           transform="translate(229.2568,434.9033)"><path
             d="m 0,0 c 0,0 8.123,4.232 16.308,-3.262 16.541,-15.143 -25.86,-36.576 -4.426,-50.088 0,0 -20.269,-5.591 -20.735,12.58 -0.466,18.172 10.251,39.139 10.251,39.139"
             style="fill:#6f4c5a;fill-opacity:1;fill-rule:nonzero;stroke:none"
             id="path2233"
             inkscape:connector-curvature="0" /></g><g
           id="g2235"
           transform="translate(205.9598,449.1145)"><path
             d="m 0,0 c 0,0 -9.319,5.591 -23.763,-0.466 -14.444,-6.057 -17.706,-25.394 -14.444,-34.945 3.262,-9.552 -11.649,-13.979 1.398,-26.093 0,0 -2.097,5.358 0.699,10.25 2.795,4.893 11.182,8.155 9.784,20.036 -1.397,11.881 12.115,19.802 15.376,18.405 C -7.688,-14.211 0,0 0,0"
             style="fill:#6f4c5a;fill-opacity:1;fill-rule:nonzero;stroke:none"
             id="path2237"
             inkscape:connector-curvature="0" /></g><g
           id="g2239"
           transform="translate(209.6873,439.3297)"><path
             d="M 0,0 C 0,0 -27.105,7.387 -33.315,-22.598 -39.524,-52.583 -16.714,-70.066 5.018,-52.148 26.75,-34.231 32.081,-0.731 0,0"
             style="fill:#ffae9e;fill-opacity:1;fill-rule:nonzero;stroke:none"
             id="path2241"
             inkscape:connector-curvature="0" /></g><g
           id="g2243"
           transform="translate(224.5985,404.2288)"><path
             d="M 0,0 C 0,0 6.898,7.283 8.713,-0.428 10.529,-8.14 -3.268,-18.851 -6.898,-10.282 -10.528,-1.714 0,0 0,0"
             style="fill:#ffae9e;fill-opacity:1;fill-rule:nonzero;stroke:none"
             id="path2245"
             inkscape:connector-curvature="0" /></g><g
           id="g2247"
           transform="translate(196.641,443.7562)"><path
             d="m 0,0 c 0,0 -8.154,-10.484 4.193,-20.967 12.348,-10.484 19.337,-15.609 15.143,-27.025 -4.193,-11.415 -4.193,-16.541 -1.397,-20.967 0,0 -0.233,6.989 6.057,13.046 6.29,6.057 8.154,16.308 8.62,19.104 0,0 3.213,1.692 4.285,-2.649 0,0 7.829,10.57 4.102,22.218 C 37.275,-5.591 17.939,18.172 0,0"
             style="fill:#7f5e6a;fill-opacity:1;fill-rule:nonzero;stroke:none"
             id="path2249"
             inkscape:connector-curvature="0" /></g><g
           id="g2251"
           transform="translate(186.4802,408.719)"><path
             d="m 0,0 c 0,0 -0.004,0.291 -0.037,0.779 -0.032,0.486 -0.092,1.174 -0.245,1.936 -0.083,0.379 -0.192,0.777 -0.343,1.157 -0.07,0.195 -0.157,0.382 -0.269,0.553 -0.094,0.185 -0.213,0.343 -0.333,0.504 -0.1,0.177 -0.283,0.279 -0.411,0.429 -0.154,0.125 -0.338,0.216 -0.491,0.345 l -0.574,0.259 -0.643,0.184 -0.729,0.107 c -0.24,0.013 -0.371,-0.016 -0.565,0 C -4.835,6.22 -5.03,6.187 -5.221,6.155 -5.397,6.073 -5.599,6.047 -5.766,5.937 -5.936,5.837 -6.11,5.747 -6.267,5.615 -6.436,5.503 -6.593,5.372 -6.732,5.22 -7.021,4.935 -7.276,4.611 -7.502,4.296 -7.941,3.657 -8.266,3.048 -8.486,2.613 -8.707,2.177 -8.825,1.91 -8.825,1.91 c 0,0 -0.056,0.285 -0.062,0.794 -10e-4,0.506 0.039,1.242 0.313,2.104 0.136,0.431 0.314,0.904 0.621,1.36 0.277,0.469 0.684,0.935 1.211,1.309 0.25,0.204 0.567,0.328 0.864,0.491 0.316,0.116 0.644,0.214 0.99,0.278 0.35,0.027 0.769,0.068 1.078,0.043 l 0.411,-0.05 0.206,-0.026 0.103,-0.012 0.051,-0.006 0.112,-0.019 0.03,-0.009 0.944,-0.295 C -1.645,7.734 -1.348,7.557 -1.056,7.397 -0.496,6.995 -0.025,6.489 0.292,5.93 0.622,5.38 0.795,4.791 0.867,4.254 0.966,3.717 0.943,3.213 0.9,2.764 0.814,1.865 0.564,1.172 0.366,0.707 0.162,0.241 0,0 0,0"
             style="fill:#231824;fill-opacity:1;fill-rule:nonzero;stroke:none"
             id="path2253"
             inkscape:connector-curvature="0" /></g><g
           id="g2255"
           transform="translate(208.3771,405.1769)"><path
             d="m 0,0 c 0,0 -0.004,0.291 -0.037,0.779 -0.032,0.486 -0.092,1.174 -0.245,1.936 -0.083,0.378 -0.192,0.777 -0.343,1.157 -0.07,0.195 -0.157,0.382 -0.269,0.553 -0.094,0.185 -0.213,0.343 -0.333,0.504 -0.1,0.177 -0.283,0.279 -0.411,0.429 -0.155,0.125 -0.338,0.216 -0.491,0.344 l -0.574,0.26 -0.643,0.184 -0.729,0.107 c -0.24,0.013 -0.371,-0.016 -0.565,0 C -4.836,6.22 -5.03,6.187 -5.221,6.155 -5.397,6.073 -5.599,6.047 -5.765,5.937 -5.936,5.836 -6.11,5.747 -6.267,5.615 -6.436,5.503 -6.593,5.372 -6.732,5.22 -7.021,4.935 -7.276,4.61 -7.502,4.296 -7.941,3.657 -8.266,3.048 -8.486,2.613 -8.707,2.176 -8.825,1.91 -8.825,1.91 c 0,0 -0.056,0.285 -0.062,0.794 -10e-4,0.506 0.039,1.242 0.312,2.104 0.137,0.431 0.315,0.904 0.622,1.36 0.276,0.469 0.684,0.935 1.211,1.309 0.25,0.204 0.567,0.328 0.864,0.491 0.316,0.116 0.644,0.214 0.99,0.278 0.35,0.027 0.769,0.068 1.077,0.043 l 0.412,-0.05 0.206,-0.026 0.103,-0.012 0.051,-0.007 0.112,-0.018 0.03,-0.009 0.944,-0.295 C -1.645,7.734 -1.348,7.557 -1.056,7.397 -0.496,6.995 -0.025,6.489 0.291,5.93 0.622,5.38 0.795,4.791 0.867,4.254 0.966,3.717 0.943,3.213 0.9,2.764 0.814,1.865 0.564,1.172 0.366,0.706 0.162,0.241 0,0 0,0"
             style="fill:#231824;fill-opacity:1;fill-rule:nonzero;stroke:none"
             id="path2257"
             inkscape:connector-curvature="0" /></g><g
           id="g2259"
           transform="translate(177.8337,423.831)"><path
             d="M 0,0 C 0,0 0.709,0.828 2.147,1.549 2.508,1.719 2.9,1.923 3.345,2.052 3.78,2.213 4.258,2.342 4.763,2.429 5.267,2.518 5.804,2.576 6.349,2.589 6.898,2.562 7.46,2.566 8.013,2.43 8.289,2.37 8.566,2.315 8.838,2.246 9.104,2.152 9.365,2.045 9.624,1.944 c 0.535,-0.167 0.974,-0.517 1.424,-0.782 0.468,-0.245 0.789,-0.661 1.144,-0.968 0.367,-0.301 0.597,-0.693 0.835,-1.021 0.23,-0.334 0.458,-0.621 0.574,-0.934 0.14,-0.295 0.242,-0.562 0.328,-0.777 0.166,-0.432 0.24,-0.682 0.24,-0.682 0,0 -0.224,0.16 -0.577,0.445 -0.174,0.144 -0.387,0.313 -0.609,0.518 -0.21,0.216 -0.528,0.378 -0.81,0.603 -0.302,0.205 -0.59,0.464 -0.954,0.647 -0.173,0.099 -0.352,0.201 -0.534,0.305 -0.178,0.109 -0.356,0.22 -0.56,0.292 -0.394,0.165 -0.78,0.368 -1.211,0.475 -0.21,0.066 -0.422,0.127 -0.63,0.204 L 7.625,0.397 C 7.193,0.522 6.734,0.514 6.292,0.584 5.844,0.593 5.395,0.644 4.957,0.62 4.52,0.59 4.088,0.6 3.678,0.548 3.266,0.517 2.876,0.459 2.507,0.422 1.047,0.214 0,0 0,0"
             style="fill:#231824;fill-opacity:1;fill-rule:nonzero;stroke:none"
             id="path2261"
             inkscape:connector-curvature="0" /></g><g
           id="g2263"
           transform="translate(199.4085,419.3228)"><path
             d="M 0,0 C 0,0 0.709,0.828 2.147,1.549 2.508,1.719 2.9,1.923 3.345,2.052 3.78,2.213 4.258,2.342 4.763,2.429 5.267,2.518 5.804,2.576 6.349,2.589 6.898,2.562 7.46,2.566 8.013,2.43 8.289,2.37 8.566,2.315 8.838,2.246 9.104,2.152 9.365,2.045 9.624,1.944 c 0.535,-0.167 0.974,-0.517 1.424,-0.782 0.468,-0.245 0.789,-0.661 1.144,-0.968 0.367,-0.301 0.597,-0.693 0.835,-1.021 0.23,-0.334 0.458,-0.621 0.574,-0.934 0.14,-0.295 0.242,-0.562 0.328,-0.777 0.166,-0.432 0.24,-0.682 0.24,-0.682 0,0 -0.224,0.16 -0.577,0.445 -0.174,0.144 -0.387,0.313 -0.609,0.518 -0.21,0.216 -0.528,0.378 -0.81,0.603 -0.302,0.205 -0.59,0.464 -0.954,0.647 -0.173,0.099 -0.352,0.201 -0.534,0.305 -0.178,0.109 -0.355,0.22 -0.56,0.292 -0.394,0.165 -0.78,0.368 -1.211,0.475 -0.21,0.066 -0.422,0.127 -0.63,0.204 L 7.625,0.397 C 7.193,0.522 6.734,0.514 6.292,0.584 5.844,0.593 5.395,0.644 4.957,0.62 4.52,0.59 4.088,0.6 3.678,0.548 3.266,0.517 2.876,0.459 2.507,0.422 1.047,0.214 0,0 0,0"
             style="fill:#231824;fill-opacity:1;fill-rule:nonzero;stroke:none"
             id="path2265"
             inkscape:connector-curvature="0" /></g><g
           id="g2267"
           transform="translate(191.6803,415.1367)"><path
             d="m 0,0 c -0.379,-1.278 -0.866,-2.495 -1.382,-3.696 -0.521,-1.197 -1.092,-2.365 -1.688,-3.52 -0.599,-1.153 -1.237,-2.283 -1.9,-3.399 -0.671,-1.112 -1.369,-2.208 -2.113,-3.278 l -0.074,0.844 c 0.488,-0.684 0.944,-1.396 1.396,-2.11 0.437,-0.727 0.876,-1.452 1.253,-2.23 -0.697,0.511 -1.332,1.073 -1.967,1.635 -0.621,0.573 -1.239,1.15 -1.824,1.754 l -0.314,0.323 0.239,0.521 c 0.544,1.185 1.134,2.343 1.752,3.485 0.624,1.138 1.275,2.261 1.963,3.363 0.693,1.099 1.41,2.185 2.177,3.241 C -1.71,-2.013 -0.909,-0.976 0,0"
             style="fill:#eb827b;fill-opacity:1;fill-rule:nonzero;stroke:none"
             id="path2269"
             inkscape:connector-curvature="0" /></g><g
           id="g2271"
           transform="translate(181.6778,396.7481)"><path
             d="M 0,0 16.443,-3.441 C 16.443,-3.441 9.177,-10.324 0,0"
             style="fill:#ffffff;fill-opacity:1;fill-rule:nonzero;stroke:none"
             id="path2273"
             inkscape:connector-curvature="0" /></g><g
           id="g2275"
           transform="translate(176.2291,375.5961)"><path
             d="m 0,0 c 0,0 -11.321,3.564 -25.311,-6.377 -13.991,-9.94 -27.705,-11.663 -27.705,-11.663 l 0.736,46.021 c 0,0 23.563,-8.468 0,3.681 0,0 33.872,-11.413 2.578,2.946 0,0 33.871,-8.836 0.736,2.209 0,0 29.453,-5.155 -1.105,3.681 0,0 -9.204,1.105 -13.254,-8.099 -5.977,-13.585 -13.99,-61.852 -8.099,-74.37 5.89,-12.518 54.12,13.99 54.12,13.99 z"
             style="fill:#ffb9af;fill-opacity:1;fill-rule:nonzero;stroke:none"
             id="path2277"
             inkscape:connector-curvature="0" /></g><g
           id="g2279"
           transform="translate(123.2131,357.556)"><path
             d="m 0,0 c 0,0 0.92,-17.33 -5.43,-26.994 -1.494,-2.273 39.67,11.689 39.67,11.689 0,0 -11.874,-26.508 6.627,-46.389 0,0 37.921,-8.376 52.279,-1.473 8.209,3.947 4.418,11.322 4.418,11.322 l 8.284,0.828 c 0,0 5.456,15.72 8.725,27.708 3.934,14.423 4.529,23.099 -17.837,32.211 0,0 -20.434,-8.836 -37.829,8.284 0,0 -14.635,3.313 -22.919,0.828 C 27.704,15.529 11.505,4.628 0,0"
             style="fill:#438685;fill-opacity:1;fill-rule:nonzero;stroke:none"
             id="path2281"
             inkscape:connector-curvature="0" /></g><g
           id="g2283"><g
             id="g2285" /><g
             id="g2297"><g
               clip-path="url(#clipPath2289)"
               id="g2295"
               style="opacity:0.19999701"><g
                 transform="translate(127.7672,359.5834)"
                 id="g2293"><path
                   d="m 0,0 c -1.574,-0.753 -3.104,-1.444 -4.554,-2.027 0,0 0.92,-17.33 -5.431,-26.995 -0.587,-0.893 5.425,0.725 12.931,3.015 C 3.542,-17.224 2.447,-8.042 0,0"
                   style="fill:#231824;fill-opacity:1;fill-rule:nonzero;stroke:none"
                   id="path2291"
                   inkscape:connector-curvature="0" /></g></g></g></g><g
           id="g2299"><g
             id="g2301" /><g
             id="g2313"><g
               clip-path="url(#clipPath2305)"
               id="g2311"
               style="opacity:0.19999701"><g
                 transform="translate(230.2063,309.898)"
                 id="g2309"><path
                   d="M 0,0 C -2.048,4.6 -4.358,9.062 -7.283,13.185 -14.618,4.121 -27.057,1.47 -39.727,3.876 -52.09,6.225 -73.038,15.313 -73.544,30.301 c -2.317,-6.576 -8.013,-27.755 7.417,-44.337 0,0 37.921,-8.376 52.28,-1.473 8.208,3.947 4.418,11.322 4.418,11.322 l 8.284,0.828 c 0,0 0.44,1.27 1.145,3.359"
                   style="fill:#231824;fill-opacity:1;fill-rule:nonzero;stroke:none"
                   id="path2307"
                   inkscape:connector-curvature="0" /></g></g></g></g><g
           id="g2315"
           transform="translate(197.2385,372.6671)"><path
             d="m 0,0 c 0,0 -1.936,7.745 1.936,10.069 l 4.26,2.324 c 0,0 -1.161,24.01 3.099,1.161 0,0 7.358,27.109 3.098,-1.161 0,0 10.069,17.814 1.936,-0.388 0,0 12.78,18.202 1.549,-1.936 L 9.682,5.422 c 0,0 16.652,-36.016 20.525,-46.86 3.873,-10.843 5.035,-27.883 -3.873,-30.207 C 17.427,-73.969 1.936,-41.438 0,0"
             style="fill:#ffb9af;fill-opacity:1;fill-rule:nonzero;stroke:none"
             id="path2317"
             inkscape:connector-curvature="0" /></g><g
           id="g2319"
           transform="translate(132.752,420.2888)"><path
             d="m 0,0 0.644,-5.796 c 0,0 2.576,0.644 1.61,-2.254"
             style="fill:none;stroke:#aa534f;stroke-width:0.96600002;stroke-linecap:butt;stroke-linejoin:miter;stroke-miterlimit:10;stroke-dasharray:none;stroke-opacity:1"
             id="path2321"
             inkscape:connector-curvature="0" /></g><g
           id="g2323"
           transform="translate(128.2439,421.5769)"><path
             d="m 0,0 0.644,-5.796 c 0,0 2.576,0.644 1.61,-2.254"
             style="fill:none;stroke:#aa534f;stroke-width:0.96600002;stroke-linecap:butt;stroke-linejoin:miter;stroke-miterlimit:10;stroke-dasharray:none;stroke-opacity:1"
             id="path2325"
             inkscape:connector-curvature="0" /></g><g
           id="g2327"
           transform="translate(109.8892,438.9655)"><path
             d="m 0,0 c 0,0 20.287,17.389 30.591,-8.372 0,0 9.66,6.118 12.237,-7.407 0,0 -9.339,-3.864 -12.881,1.61 0,0 -16.745,-8.05 -33.489,5.153 l 1.288,3.22 9.338,-2.576 z"
             style="fill:#ffa855;fill-opacity:1;fill-rule:nonzero;stroke:none"
             id="path2329"
             inkscape:connector-curvature="0" /></g><g
           id="g2331"
           transform="translate(139.8363,424.797)"><path
             d="M 0,0 C 0,0 -2.576,7.406 6.118,9.66 14.813,11.914 17.389,-2.254 13.202,-4.186 9.016,-6.118 0.644,-5.152 0,0"
             style="fill:#ffa855;fill-opacity:1;fill-rule:nonzero;stroke:none"
             id="path2333"
             inkscape:connector-curvature="0" /></g><g
           id="g2335"
           transform="translate(106.3471,429.9492)"><path
             d="M 0,0 C 0,0 23.507,-18.033 35.421,-4.83 L 23.829,0.966 Z"
             style="fill:#ffa855;fill-opacity:1;fill-rule:nonzero;stroke:none"
             id="path2337"
             inkscape:connector-curvature="0" /></g><g
           id="g2339"
           transform="translate(150.4627,419.9668)"><path
             d="M 0,0 C 0,0 1.61,0 4.508,3.542 L 6.762,-3.22 Z"
             style="fill:#aa534f;fill-opacity:1;fill-rule:nonzero;stroke:none"
             id="path2341"
             inkscape:connector-curvature="0" /></g><g
           id="g2343"
           transform="translate(153.6828,425.2741)"><path
             d="m 0,0 c 0,-0.909 -0.491,-1.646 -1.097,-1.646 -0.606,0 -1.097,0.737 -1.097,1.646 0,0.909 0.491,1.646 1.097,1.646 C -0.491,1.646 0,0.909 0,0"
             style="fill:#231824;fill-opacity:1;fill-rule:nonzero;stroke:none"
             id="path2345"
             inkscape:connector-curvature="0" /></g><g
           id="g2347"
           transform="translate(148.471,423.3539)"><path
             d="m 0,0 c 0,-0.909 -0.491,-1.646 -1.097,-1.646 -0.606,0 -1.097,0.737 -1.097,1.646 0,0.909 0.491,1.646 1.097,1.646 C -0.491,1.646 0,0.909 0,0"
             style="fill:#231824;fill-opacity:1;fill-rule:nonzero;stroke:none"
             id="path2349"
             inkscape:connector-curvature="0" /></g></g></g></g></svg>